<svg width="24" height="24" viewBox="0 0 24 24" fill="none" xmlns="http://www.w3.org/2000/svg">
<g clip-path="url(#clip0_322_17184)">
<path d="M6.51729 15.9796L11.8821 10.6148C12.2969 10.2 12.9694 10.2 13.3842 10.6148C13.799 11.0296 13.799 11.7021 13.3842 12.1169L8.0194 17.4817C7.02692 18.4742 5.52382 16.9731 6.51729 15.9796Z" fill="#939598"/>
<path d="M8.01917 17.4819L13.384 12.117C13.7986 11.7024 13.7988 11.0303 13.3845 10.6155L6.51758 17.4824C6.93238 17.8967 7.60452 17.8967 8.01917 17.4819Z" fill="#808285"/>
<path d="M21.9226 2.07613C19.1544 -0.692115 14.6501 -0.691975 11.8819 2.07613C9.1136 4.84438 9.1136 9.34874 11.8819 12.117C14.6501 14.8851 19.1543 14.8852 21.9226 12.117C24.6909 9.34874 24.691 4.84438 21.9226 2.07613Z" fill="#C7E9F4"/>
<path d="M21.9231 12.117C24.6912 9.34889 24.6914 4.845 21.9236 2.07666L11.8828 12.1175C14.6511 14.8851 19.1549 14.8851 21.9231 12.117Z" fill="#80D0E1"/>
<path d="M0.850527 23.1485C-0.282207 22.0157 -0.282207 20.1727 0.850527 19.04L5.21393 14.6766C5.62868 14.2618 6.30125 14.2618 6.71604 14.6766L9.32253 17.2829C9.73714 17.6976 9.73728 18.3703 9.32253 18.7851L4.95912 23.1485C3.82367 24.2838 1.98598 24.284 0.850527 23.1485Z" fill="#FFC72D"/>
<path d="M16.9028 10.9203C19.0146 10.9203 20.7265 9.2084 20.7265 7.09664C20.7265 4.98487 19.0146 3.27295 16.9028 3.27295C14.791 3.27295 13.0791 4.98487 13.0791 7.09664C13.0791 9.2084 14.791 10.9203 16.9028 10.9203Z" fill="#E8F2FB"/>
<path d="M19.6062 9.80025C21.0992 8.30723 21.0995 5.88656 19.6067 4.39331L14.1992 9.80081C15.6925 11.2935 18.1131 11.2934 19.6062 9.80025Z" fill="#C7E9F4"/>
<path d="M9.32198 17.2828L8.01927 15.9802L0.850586 23.1488C1.98609 24.2838 3.82335 24.2836 4.95857 23.1483L9.32198 18.7849C9.73673 18.3702 9.73649 17.6974 9.32198 17.2828Z" fill="#FFBE00"/>
</g>
<defs>
<clipPath id="clip0_322_17184">
<rect width="24" height="24" fill="white"/>
</clipPath>
</defs>
</svg>
