<svg width="16" height="21" viewBox="0 0 16 21" fill="none" xmlns="http://www.w3.org/2000/svg">
<path d="M8.00012 12.9468C12.4474 12.9468 15.9312 10.2205 15.9312 6.73986C15.9312 3.25917 12.4474 0.532959 8.00012 0.532959C3.55288 0.532959 0.0690842 3.25917 0.0690842 6.73986C0.0690842 10.2205 3.55288 12.9468 8.00012 12.9468Z" fill="#F0C419"/>
<path d="M8.00004 10.5331C10.8866 10.5331 13.2349 8.7641 13.2349 6.75238C13.2349 4.74066 10.8866 3.10376 8.00004 3.10376C5.11348 3.10376 2.76521 4.74031 2.76521 6.75238C2.76521 8.76445 5.11348 10.5331 8.00004 10.5331Z" fill="#F18D46"/>
<path d="M9.37929 7.42956C9.56998 7.42956 9.72412 7.27508 9.72412 7.08473V5.70542C9.72412 5.51508 9.56998 5.3606 9.37929 5.3606C9.1886 5.3606 9.03447 5.51508 9.03447 5.70542V7.08473C9.03447 7.27508 9.1886 7.42956 9.37929 7.42956Z" fill="white"/>
<path d="M6.62099 7.42956C6.81168 7.42956 6.96582 7.27508 6.96582 7.08473V5.70542C6.96582 5.51508 6.81168 5.3606 6.62099 5.3606C6.4303 5.3606 6.27617 5.51508 6.27617 5.70542V7.08473C6.27617 7.27508 6.4303 7.42956 6.62099 7.42956Z" fill="white"/>
<path d="M12.1382 15.7053C12.1382 14.7533 11.3661 13.9812 10.414 13.9812C9.46198 13.9812 8.68991 14.7533 8.68991 15.7053V17.4295H10.414C11.3661 17.4295 12.1382 16.6574 12.1382 15.7053Z" fill="#4C8056"/>
<path d="M3.86227 17.4295C3.86227 16.4774 4.63434 15.7053 5.58641 15.7053C6.53848 15.7053 7.31055 16.4774 7.31055 17.4295V19.1536H5.58641C4.63434 19.1536 3.86227 18.3815 3.86227 17.4295Z" fill="#4C8056"/>
<path d="M8.00029 12.9466C8.23304 12.9466 8.4627 12.9373 8.68994 12.9229V20.5329H7.31063V12.9229C7.53787 12.9373 7.76753 12.9466 8.00029 12.9466Z" fill="#7ED09E"/>
</svg>
