<svg width="402" height="388" viewBox="0 0 402 388" fill="none" xmlns="http://www.w3.org/2000/svg">
<rect width="402" height="388" rx="8" fill="#F4F7FA"/>
<path d="M0 4C0 1.79086 1.79086 0 4 0H50.25V48.5H0V4Z" fill="#E8EDF9"/>
<path d="M19.8906 8.58862C20.272 8.58862 20.6295 8.68703 20.9375 8.85898C21.2455 8.68703 21.603 8.58862 21.9844 8.58862H27.7422C28.1236 8.58862 28.4811 8.68703 28.7891 8.85898C29.097 8.68703 29.4546 8.58862 29.8359 8.58862H35.0703C36.2267 8.58862 37.1641 9.49338 37.1641 10.6095V15.1563C37.1641 15.7924 36.8538 16.3914 36.3266 16.773L33.0958 19.1117L34.0106 27.0582C34.2528 29.162 35.2674 30.2294 36.7453 32.1313C37.0171 32.4811 37.1641 32.9066 37.1641 33.3438V37.3855C37.1641 38.5016 36.2267 39.4063 35.0703 39.4063H14.6562C13.4999 39.4063 12.5625 38.5016 12.5625 37.3855V33.3438C12.5625 32.9066 12.7094 32.4811 12.9812 32.1313C14.4592 30.2294 15.4737 29.162 15.7159 27.0582L16.6307 19.1117L13.4 16.773C12.8728 16.3914 12.5625 15.7924 12.5625 15.1563V10.6095C12.5625 9.49338 13.4999 8.58862 14.6562 8.58862H19.8906Z" fill="#F4F7FA"/>
<path d="M14.6562 10.6094H19.8906V13.6406H21.9844V10.6094H27.7422V13.6406H29.8359V10.6094H35.0703V15.1562L30.8828 18.1875L31.9297 27.2812H17.7969L18.8438 18.1875L14.6562 15.1562V10.6094Z" fill="#34364C"/>
<path d="M17.7969 29.3021H31.9297L35.0703 33.3438V37.3854H14.6562V33.3438L17.7969 29.3021Z" fill="#34364C"/>
<rect width="50.25" height="48.5" transform="translate(0 97)" fill="#E8EDF9"/>
<rect width="50.25" height="48.5" transform="translate(0 194)" fill="#E8EDF9"/>
<rect width="50.25" height="48.5" transform="translate(0 291)" fill="#E8EDF9"/>
<path d="M18.3766 317.84C18.1268 318.169 17.8287 318.512 17.4813 318.865C16.2551 320.109 14.7513 321.133 13.7807 321.668L13.6175 321.758C12.9651 322.118 12.5625 322.788 12.5625 323.513V328.385C12.5625 329.501 13.4999 330.406 14.6562 330.406H35.0703C36.2267 330.406 37.1641 329.501 37.1641 328.385V323.513C37.1641 322.788 36.7615 322.118 36.1091 321.758L35.9458 321.668C34.9753 321.133 33.4715 320.109 32.2453 318.865C31.8978 318.512 31.5998 318.169 31.35 317.84C32.2689 317.627 32.9516 316.828 32.9516 315.875V312.586C32.9516 311.929 32.6211 311.314 32.0653 310.935L31.1761 310.329C31.6892 309.367 31.9795 308.275 31.9795 307.119C31.9795 303.239 28.7209 300.094 24.7013 300.094C20.6816 300.094 17.423 303.239 17.423 307.119C17.423 308.34 17.7468 309.489 18.3148 310.49L17.6612 310.935C17.1055 311.314 16.7749 311.929 16.7749 312.586V315.875C16.7749 316.828 17.4577 317.627 18.3766 317.84Z" fill="#34364C"/>
<path d="M29.8858 307.118C29.8858 308.57 29.2457 309.877 28.2231 310.791L30.8579 312.586V315.875H28.2785C28.4029 317.4 29.4165 318.926 30.7281 320.257C32.1201 321.67 33.7949 322.809 34.907 323.423L35.0703 323.513V328.385H14.6562V323.513L14.8195 323.423C15.9317 322.809 17.6064 321.67 18.9984 320.257C20.3101 318.926 21.3237 317.4 21.4481 315.875H18.8687V312.586L21.3226 310.914C20.2169 309.996 19.5167 308.636 19.5167 307.118C19.5167 304.355 21.8379 302.115 24.7013 302.115C27.5646 302.115 29.8858 304.355 29.8858 307.118Z" fill="#F4F7FA"/>
<rect width="50.25" height="48.5" transform="translate(0 48.5)" fill="#427119"/>
<path d="M18.3766 75.3402C18.1268 75.6693 17.8287 76.0121 17.4813 76.3647C16.2551 77.609 14.7513 78.6328 13.7807 79.1681L13.6175 79.2581C12.9651 79.6179 12.5625 80.2875 12.5625 81.0127V85.8854C12.5625 87.0015 13.4999 87.9062 14.6562 87.9062H35.0703C36.2267 87.9062 37.1641 87.0015 37.1641 85.8854V81.0127C37.1641 80.2875 36.7615 79.6179 36.1091 79.2581L35.9458 79.1681C34.9753 78.6328 33.4715 77.609 32.2453 76.3647C31.8978 76.0121 31.5998 75.6693 31.35 75.3402C32.2689 75.1266 32.9516 74.328 32.9516 73.3755V70.086C32.9516 69.4293 32.6211 68.8137 32.0653 68.435L31.1761 67.8292C31.6892 66.8669 31.9795 65.775 31.9795 64.6186C31.9795 60.7389 28.7209 57.5938 24.7013 57.5938C20.6816 57.5938 17.423 60.7389 17.423 64.6186C17.423 65.84 17.7468 66.9892 18.3148 67.9897L17.6612 68.435C17.1055 68.8137 16.7749 69.4293 16.7749 70.086V73.3755C16.7749 74.328 17.4577 75.1266 18.3766 75.3402Z" fill="#F4F7FA"/>
<path d="M29.8858 64.6185C29.8858 66.0698 29.2457 67.3768 28.2231 68.2908L30.8579 70.0859V73.3754H28.2785C28.4029 74.9002 29.4165 76.4262 30.7281 77.7573C32.1201 79.1699 33.7949 80.3092 34.907 80.9226L35.0703 81.0126V85.8853H14.6562V81.0126L14.8195 80.9226C15.9317 80.3092 17.6064 79.1699 18.9984 77.7573C20.3101 76.4262 21.3237 74.9002 21.4481 73.3754H18.8687V70.0859L21.3226 68.414C20.2169 67.4963 19.5167 66.1363 19.5167 64.6185C19.5167 61.8549 21.8379 59.6145 24.7013 59.6145C27.5646 59.6145 29.8858 61.8549 29.8858 64.6185Z" fill="#34364C"/>
<rect width="50.25" height="48.5" transform="translate(0 145.5)" fill="#427119"/>
<rect width="50.25" height="48.5" transform="translate(0 242.5)" fill="#427119"/>
<path d="M0 339.5H50.25V388H4C1.79086 388 0 386.209 0 384V339.5Z" fill="#427119"/>
<path d="M19.8906 348.089C20.272 348.089 20.6295 348.187 20.9375 348.359C21.2455 348.187 21.603 348.089 21.9844 348.089H27.7422C28.1236 348.089 28.4811 348.187 28.7891 348.359C29.097 348.187 29.4546 348.089 29.8359 348.089H35.0703C36.2267 348.089 37.1641 348.993 37.1641 350.109V354.656C37.1641 355.292 36.8538 355.891 36.3266 356.273L33.0958 358.612L34.0106 366.558C34.2528 368.662 35.2674 369.729 36.7453 371.631C37.0171 371.981 37.1641 372.407 37.1641 372.844V376.885C37.1641 378.002 36.2267 378.906 35.0703 378.906H14.6562C13.4999 378.906 12.5625 378.002 12.5625 376.885V372.844C12.5625 372.407 12.7094 371.981 12.9812 371.631C14.4592 369.729 15.4737 368.662 15.7159 366.558L16.6307 358.612L13.4 356.273C12.8728 355.891 12.5625 355.292 12.5625 354.656V350.109C12.5625 348.993 13.4999 348.089 14.6562 348.089H19.8906Z" fill="#34364C"/>
<path d="M14.6562 350.109H19.8906V353.141H21.9844V350.109H27.7422V353.141H29.8359V350.109H35.0703V354.656L30.8828 357.687L31.9297 366.781H17.7969L18.8438 357.687L14.6562 354.656V350.109Z" fill="#F4F7FA"/>
<path d="M17.7969 368.802H31.9297L35.0703 372.844V376.885H14.6562V372.844L17.7969 368.802Z" fill="#F4F7FA"/>
<rect width="50.25" height="48.5" transform="translate(100.5 48.5)" fill="#427119"/>
<path d="M118.877 75.3402C118.627 75.6693 118.329 76.0121 117.981 76.3647C116.755 77.609 115.251 78.6328 114.281 79.1681L114.117 79.2581C113.465 79.6179 113.062 80.2875 113.062 81.0127V85.8854C113.062 87.0015 114 87.9062 115.156 87.9062H135.57C136.727 87.9062 137.664 87.0015 137.664 85.8854V81.0127C137.664 80.2875 137.261 79.6179 136.609 79.2581L136.446 79.1681C135.475 78.6328 133.971 77.609 132.745 76.3647C132.398 76.0121 132.1 75.6693 131.85 75.3402C132.769 75.1266 133.452 74.328 133.452 73.3755V70.086C133.452 69.4293 133.121 68.8137 132.565 68.435L131.676 67.8292C132.189 66.8669 132.48 65.775 132.48 64.6186C132.48 60.7389 129.221 57.5938 125.201 57.5938C121.182 57.5938 117.923 60.7389 117.923 64.6186C117.923 65.84 118.247 66.9892 118.815 67.9897L118.161 68.435C117.605 68.8137 117.275 69.4293 117.275 70.086V73.3755C117.275 74.328 117.958 75.1266 118.877 75.3402Z" fill="#F4F7FA"/>
<path d="M130.386 64.6185C130.386 66.0698 129.746 67.3768 128.723 68.2908L131.358 70.0859V73.3754H128.778C128.903 74.9002 129.917 76.4262 131.228 77.7573C132.62 79.1699 134.295 80.3092 135.407 80.9226L135.57 81.0126V85.8853H115.156V81.0126L115.32 80.9226C116.432 80.3092 118.106 79.1699 119.498 77.7573C120.81 76.4262 121.824 74.9002 121.948 73.3754H119.369V70.0859L121.823 68.414C120.717 67.4963 120.017 66.1363 120.017 64.6185C120.017 61.8549 122.338 59.6145 125.201 59.6145C128.065 59.6145 130.386 61.8549 130.386 64.6185Z" fill="#34364C"/>
<rect width="50.25" height="48.5" transform="translate(100.5 145.5)" fill="#427119"/>
<rect width="50.25" height="48.5" transform="translate(100.5 242.5)" fill="#427119"/>
<rect width="50.25" height="48.5" transform="translate(100.5 339.5)" fill="#427119"/>
<path d="M120.555 354.092C120.345 353.535 120.23 352.932 120.23 352.305C120.23 349.418 122.654 347.078 125.645 347.078C128.636 347.078 131.061 349.418 131.061 352.305C131.061 353.151 130.851 353.952 130.48 354.661C131.014 354.697 131.533 354.929 131.912 355.346C133.968 357.614 135.767 360.847 135.767 364.595C135.767 367.275 134.811 369.26 133.519 370.691L135.972 371.106C136.974 371.275 137.704 372.115 137.704 373.096V376.885C137.704 377.421 137.484 377.935 137.091 378.314C136.698 378.693 136.166 378.906 135.611 378.906L115.68 378.906C114.523 378.906 113.586 378.001 113.586 376.885V373.096C113.586 372.116 114.315 371.277 115.315 371.106L117.528 370.729C116.219 369.295 115.247 367.299 115.247 364.595C115.247 361.671 116.421 359.125 117.798 357.173C118.663 355.947 119.643 354.905 120.555 354.092Z" fill="#34364C"/>
<path d="M126.672 364.328H124.578C124.578 360.617 125.744 356.913 128.324 354.201C128.728 353.67 128.967 353.015 128.967 352.305C128.967 350.534 127.48 349.099 125.645 349.099C123.811 349.099 122.323 350.534 122.323 352.305C122.323 353.179 122.685 353.971 123.272 354.549C121.197 355.977 117.341 359.804 117.341 364.595C117.341 369.431 121.269 371.388 123.329 371.79L115.68 373.096V376.885L135.611 376.885V373.096L127.78 371.771C129.864 371.328 133.673 369.357 133.673 364.595C133.673 361.477 132.168 358.698 130.336 356.677C128.324 358.193 126.672 361.729 126.672 364.328Z" fill="#F4F7FA"/>
<rect width="50.25" height="48.5" transform="translate(201 48.5)" fill="#427119"/>
<path d="M219.377 75.3402C219.127 75.6693 218.829 76.0121 218.481 76.3647C217.255 77.609 215.751 78.6328 214.781 79.1681L214.617 79.2581C213.965 79.6179 213.562 80.2875 213.562 81.0127V85.8854C213.562 87.0015 214.5 87.9062 215.656 87.9062H236.07C237.227 87.9062 238.164 87.0015 238.164 85.8854V81.0127C238.164 80.2875 237.761 79.6179 237.109 79.2581L236.946 79.1681C235.975 78.6328 234.471 77.609 233.245 76.3647C232.898 76.0121 232.6 75.6693 232.35 75.3402C233.269 75.1266 233.952 74.328 233.952 73.3755V70.086C233.952 69.4293 233.621 68.8137 233.065 68.435L232.176 67.8292C232.689 66.8669 232.98 65.775 232.98 64.6186C232.98 60.7389 229.721 57.5938 225.701 57.5938C221.682 57.5938 218.423 60.7389 218.423 64.6186C218.423 65.84 218.747 66.9892 219.315 67.9897L218.661 68.435C218.105 68.8137 217.775 69.4293 217.775 70.086V73.3755C217.775 74.328 218.458 75.1266 219.377 75.3402Z" fill="#F4F7FA"/>
<path d="M230.886 64.6185C230.886 66.0698 230.246 67.3768 229.223 68.2908L231.858 70.0859V73.3754H229.278C229.403 74.9002 230.417 76.4262 231.728 77.7573C233.12 79.1699 234.795 80.3092 235.907 80.9226L236.07 81.0126V85.8853H215.656V81.0126L215.82 80.9226C216.932 80.3092 218.606 79.1699 219.998 77.7573C221.31 76.4262 222.324 74.9002 222.448 73.3754H219.869V70.0859L222.323 68.414C221.217 67.4963 220.517 66.1363 220.517 64.6185C220.517 61.8549 222.838 59.6145 225.701 59.6145C228.565 59.6145 230.886 61.8549 230.886 64.6185Z" fill="#34364C"/>
<rect width="50.25" height="48.5" transform="translate(201 145.5)" fill="#427119"/>
<rect width="50.25" height="48.5" transform="translate(201 242.5)" fill="#427119"/>
<rect width="50.25" height="48.5" transform="translate(201 339.5)" fill="#427119"/>
<g clip-path="url(#clip0_80_2858)">
<path fill-rule="evenodd" clip-rule="evenodd" d="M222.986 347.52C223.021 346.429 223.947 345.562 225.078 345.562H228.219C229.35 345.562 230.276 346.429 230.312 347.52L230.33 348.089H231.36C232.516 348.089 233.453 348.993 233.453 350.109V351.335C235.736 350.837 238.199 351.17 240.29 352.851C244.633 356.345 244.234 363.668 239.079 367.674C237.835 368.641 236.857 369.442 236.184 370.268C236.031 370.456 235.899 370.638 235.789 370.817L237.911 371.094C238.949 371.229 239.724 372.085 239.724 373.096V376.885C239.724 378.001 238.786 378.906 237.63 378.906H215.667C214.511 378.906 213.573 378.001 213.573 376.885V373.096C213.573 372.085 214.348 371.229 215.387 371.094L217.508 370.817C217.398 370.638 217.266 370.456 217.113 370.268C216.44 369.442 215.462 368.641 214.218 367.674C209.064 363.668 208.664 356.345 213.007 352.851C215.098 351.17 217.562 350.837 219.844 351.335V350.109C219.844 348.993 220.781 348.089 221.938 348.089H222.967L222.986 347.52Z" fill="#34364C"/>
<path fill-rule="evenodd" clip-rule="evenodd" d="M225.078 347.583H228.219L228.301 350.109H231.359V353.141H228.399L228.543 356.572C228.6 356.507 228.659 356.443 228.72 356.381C231.58 353.447 235.819 351.886 238.949 354.404C242.09 356.93 242.09 362.74 237.766 366.1C235.316 368.003 233.122 369.838 233.23 372.522L237.63 373.096V376.885H215.667V373.096L220.067 372.522C220.175 369.838 217.981 368.003 215.531 366.1C211.207 362.74 211.207 356.93 214.348 354.404C217.478 351.886 221.717 353.447 224.577 356.381C224.638 356.443 224.697 356.507 224.754 356.572L224.898 353.141H221.938V350.109H224.996L225.078 347.583ZM222.12 359.189C224.039 362.224 224.293 365.771 224.293 367.313C223.331 367.315 219.705 365.775 217.784 363.247C216.402 361.427 216.042 358.727 217.227 357.679C218.412 356.63 220.92 357.293 222.12 359.189ZM231.177 359.189C229.258 362.224 229.004 365.771 229.004 367.313C229.966 367.315 233.593 365.775 235.513 363.247C236.895 361.427 237.255 358.727 236.07 357.679C234.885 356.63 232.377 357.293 231.177 359.189Z" fill="#F4F7FA"/>
</g>
<rect width="50.25" height="48.5" transform="translate(301.5 48.5)" fill="#427119"/>
<path d="M319.877 75.3402C319.627 75.6693 319.329 76.0121 318.981 76.3647C317.755 77.609 316.251 78.6328 315.281 79.1681L315.117 79.2581C314.465 79.6179 314.062 80.2875 314.062 81.0127V85.8854C314.062 87.0015 315 87.9062 316.156 87.9062H336.57C337.727 87.9062 338.664 87.0015 338.664 85.8854V81.0127C338.664 80.2875 338.261 79.6179 337.609 79.2581L337.446 79.1681C336.475 78.6328 334.971 77.609 333.745 76.3647C333.398 76.0121 333.1 75.6693 332.85 75.3402C333.769 75.1266 334.452 74.328 334.452 73.3755V70.086C334.452 69.4293 334.121 68.8137 333.565 68.435L332.676 67.8292C333.189 66.8669 333.48 65.775 333.48 64.6186C333.48 60.7389 330.221 57.5938 326.201 57.5938C322.182 57.5938 318.923 60.7389 318.923 64.6186C318.923 65.84 319.247 66.9892 319.815 67.9897L319.161 68.435C318.605 68.8137 318.275 69.4293 318.275 70.086V73.3755C318.275 74.328 318.958 75.1266 319.877 75.3402Z" fill="#F4F7FA"/>
<path d="M331.386 64.6185C331.386 66.0698 330.746 67.3768 329.723 68.2908L332.358 70.0859V73.3754H329.778C329.903 74.9002 330.917 76.4262 332.228 77.7573C333.62 79.1699 335.295 80.3092 336.407 80.9226L336.57 81.0126V85.8853H316.156V81.0126L316.32 80.9226C317.432 80.3092 319.106 79.1699 320.498 77.7573C321.81 76.4262 322.824 74.9002 322.948 73.3754H320.369V70.0859L322.823 68.414C321.717 67.4963 321.017 66.1363 321.017 64.6185C321.017 61.8549 323.338 59.6145 326.201 59.6145C329.065 59.6145 331.386 61.8549 331.386 64.6185Z" fill="#34364C"/>
<rect width="50.25" height="48.5" transform="translate(301.5 145.5)" fill="#427119"/>
<rect width="50.25" height="48.5" transform="translate(301.5 242.5)" fill="#427119"/>
<rect width="50.25" height="48.5" transform="translate(301.5 339.5)" fill="#427119"/>
<path d="M323.322 345.819C324.011 345.744 324.694 346.003 325.145 346.511L329.417 351.32C334.323 352.49 337.165 356.056 338.737 360.506C340.357 365.093 340.758 370.915 340.758 376.885C340.758 378.001 339.82 378.906 338.664 378.906H319.142C318.031 378.906 317.113 378.068 317.052 376.997C316.997 376.041 317.225 374.382 317.919 372.688L317.932 372.657C315.96 373.678 313.772 373.434 312.147 372.317C310.173 370.961 309.075 368.305 310.329 365.682C311.234 363.79 312.208 362.789 312.946 362.031C313.635 361.324 313.922 361.013 314.125 360.229C315.356 355.475 317.889 352.737 320.609 351.487C320.57 350.946 320.602 350.424 320.671 349.95C320.842 348.771 321.269 347.681 321.703 346.885C322.027 346.293 322.633 345.893 323.322 345.819Z" fill="#34364C"/>
<path fill-rule="evenodd" clip-rule="evenodd" d="M328.285 353.15L323.556 347.827C322.872 349.081 322.208 351.295 323.162 352.893C322.699 352.933 322.257 353.008 321.914 353.141C319.73 353.987 317.334 356.172 316.156 360.719C315.815 362.035 315.202 362.666 314.472 363.415C313.784 364.122 312.993 364.935 312.231 366.529C310.66 369.813 314.898 373.096 317.988 370.114C319.726 368.437 321.244 367.745 322.519 367.164C324.355 366.327 325.685 365.721 326.436 362.74C326.794 364.13 326.651 367.412 323.219 369.414C319.786 371.416 319.071 375.634 319.143 376.886H338.664C338.664 365.005 337.035 354.74 328.285 353.15Z" fill="#F4F7FA"/>
<ellipse cx="322.438" cy="359.203" rx="1.57031" ry="1.51562" fill="#34364C"/>
<rect width="50.25" height="48.5" transform="translate(201)" fill="#E8EDF9"/>
<g clip-path="url(#clip1_80_2858)">
<path fill-rule="evenodd" clip-rule="evenodd" d="M222.986 8.02021C223.021 6.92925 223.947 6.0625 225.078 6.0625H228.219C229.35 6.0625 230.276 6.92925 230.312 8.02021L230.33 8.58854H231.36C232.516 8.58854 233.453 9.4933 233.453 10.6094V11.835C235.736 11.3366 238.199 11.6695 240.29 13.3512C244.633 16.8448 244.234 24.1682 239.079 28.1739C237.835 29.1406 236.857 29.9419 236.184 30.7677C236.031 30.9561 235.899 31.1383 235.789 31.3168L237.911 31.5938C238.949 31.7293 239.724 32.585 239.724 33.5964V37.3854C239.724 38.5015 238.786 39.4062 237.63 39.4062H215.667C214.511 39.4062 213.573 38.5015 213.573 37.3854V33.5964C213.573 32.585 214.348 31.7293 215.387 31.5938L217.508 31.3168C217.398 31.1383 217.266 30.9561 217.113 30.7677C216.44 29.9419 215.462 29.1405 214.218 28.1739C209.064 24.1682 208.664 16.8448 213.007 13.3512C215.098 11.6695 217.562 11.3366 219.844 11.835V10.6094C219.844 9.4933 220.781 8.58854 221.938 8.58854H222.967L222.986 8.02021Z" fill="#F4F7FA"/>
<path fill-rule="evenodd" clip-rule="evenodd" d="M225.078 8.08325H228.219L228.301 10.6093H231.359V13.6405H228.399L228.543 17.0724C228.6 17.0072 228.659 16.9432 228.72 16.8807C231.58 13.9472 235.819 12.3862 238.949 14.9036C242.09 17.4296 242.09 23.2395 237.766 26.5997C235.316 28.5032 233.122 30.3381 233.23 33.0219L237.63 33.5963V37.3853H215.667V33.5963L220.067 33.0219C220.175 30.3381 217.981 28.5032 215.531 26.5997C211.207 23.2395 211.207 17.4296 214.348 14.9036C217.478 12.3862 221.717 13.9472 224.577 16.8807C224.638 16.9432 224.697 17.0072 224.754 17.0724L224.898 13.6405H221.938V10.6093H224.996L225.078 8.08325ZM222.12 19.6895C224.039 22.7237 224.293 26.2708 224.293 27.8133C223.331 27.8149 219.705 26.275 217.784 23.7471C216.402 21.9271 216.042 19.2269 217.227 18.1786C218.412 17.1303 220.92 17.7931 222.12 19.6895ZM231.177 19.6895C229.258 22.7237 229.004 26.2708 229.004 27.8133C229.966 27.8149 233.593 26.275 235.513 23.7471C236.895 21.9271 237.255 19.2269 236.07 18.1786C234.885 17.1303 232.377 17.7931 231.177 19.6895Z" fill="#34364C"/>
</g>
<rect width="50.25" height="48.5" transform="translate(201 97)" fill="#E8EDF9"/>
<rect width="50.25" height="48.5" transform="translate(201 194)" fill="#E8EDF9"/>
<rect width="50.25" height="48.5" transform="translate(201 291)" fill="#E8EDF9"/>
<path d="M219.377 317.84C219.127 318.169 218.829 318.512 218.481 318.865C217.255 320.109 215.751 321.133 214.781 321.668L214.617 321.758C213.965 322.118 213.562 322.788 213.562 323.513V328.385C213.562 329.501 214.5 330.406 215.656 330.406H236.07C237.227 330.406 238.164 329.501 238.164 328.385V323.513C238.164 322.788 237.761 322.118 237.109 321.758L236.946 321.668C235.975 321.133 234.471 320.109 233.245 318.865C232.898 318.512 232.6 318.169 232.35 317.84C233.269 317.627 233.952 316.828 233.952 315.875V312.586C233.952 311.929 233.621 311.314 233.065 310.935L232.176 310.329C232.689 309.367 232.98 308.275 232.98 307.119C232.98 303.239 229.721 300.094 225.701 300.094C221.682 300.094 218.423 303.239 218.423 307.119C218.423 308.34 218.747 309.489 219.315 310.49L218.661 310.935C218.105 311.314 217.775 311.929 217.775 312.586V315.875C217.775 316.828 218.458 317.627 219.377 317.84Z" fill="#34364C"/>
<path d="M230.886 307.118C230.886 308.57 230.246 309.877 229.223 310.791L231.858 312.586V315.875H229.278C229.403 317.4 230.417 318.926 231.728 320.257C233.12 321.67 234.795 322.809 235.907 323.423L236.07 323.513V328.385H215.656V323.513L215.82 323.423C216.932 322.809 218.606 321.67 219.998 320.257C221.31 318.926 222.324 317.4 222.448 315.875H219.869V312.586L222.323 310.914C221.217 309.996 220.517 308.636 220.517 307.118C220.517 304.355 222.838 302.115 225.701 302.115C228.565 302.115 230.886 304.355 230.886 307.118Z" fill="#F4F7FA"/>
<rect width="50.25" height="48.5" transform="translate(100.5)" fill="#E8EDF9"/>
<path d="M120.555 14.5924C120.345 14.0345 120.23 13.4324 120.23 12.8051C120.23 9.91831 122.654 7.57812 125.645 7.57812C128.636 7.57812 131.061 9.91831 131.061 12.8051C131.061 13.6507 130.851 14.4523 130.48 15.161C131.014 15.1967 131.533 15.429 131.912 15.8464C133.968 18.1141 135.767 21.3475 135.767 25.0953C135.767 27.7746 134.811 29.7601 133.519 31.1907L135.972 31.6059C136.974 31.7754 137.704 32.615 137.704 33.5964V37.3854C137.704 37.9214 137.484 38.4354 137.091 38.8144C136.698 39.1933 136.166 39.4063 135.611 39.4063L115.68 39.4063C114.523 39.4063 113.586 38.5015 113.586 37.3854V33.5964C113.586 32.6161 114.315 31.7772 115.315 31.6064L117.528 31.2286C116.219 29.7954 115.247 27.7988 115.247 25.0953C115.247 22.1712 116.421 19.6248 117.798 17.6732C118.663 16.4466 119.643 15.4052 120.555 14.5924Z" fill="#F4F7FA"/>
<path d="M126.672 24.828H124.578C124.578 21.1173 125.744 17.4129 128.324 14.7013C128.728 14.1702 128.967 13.5145 128.967 12.805C128.967 11.0343 127.48 9.59888 125.645 9.59888C123.811 9.59888 122.323 11.0343 122.323 12.805C122.323 13.6786 122.685 14.4706 123.272 15.0489C121.197 16.4767 117.341 20.3037 117.341 25.0952C117.341 29.9306 121.269 31.8883 123.329 32.2902L115.68 33.5963V37.3853L135.611 37.3853V33.5963L127.78 32.2707C129.864 31.828 133.673 29.857 133.673 25.0952C133.673 21.9772 132.168 19.1978 130.336 17.177C128.324 18.6926 126.672 22.2291 126.672 24.828Z" fill="#34364C"/>
<rect width="50.25" height="48.5" transform="translate(100.5 97)" fill="#E8EDF9"/>
<rect width="50.25" height="48.5" transform="translate(100.5 194)" fill="#E8EDF9"/>
<rect width="50.25" height="48.5" transform="translate(100.5 291)" fill="#E8EDF9"/>
<path d="M118.877 317.84C118.627 318.169 118.329 318.512 117.981 318.865C116.755 320.109 115.251 321.133 114.281 321.668L114.117 321.758C113.465 322.118 113.062 322.788 113.062 323.513V328.385C113.062 329.501 114 330.406 115.156 330.406H135.57C136.727 330.406 137.664 329.501 137.664 328.385V323.513C137.664 322.788 137.261 322.118 136.609 321.758L136.446 321.668C135.475 321.133 133.971 320.109 132.745 318.865C132.398 318.512 132.1 318.169 131.85 317.84C132.769 317.627 133.452 316.828 133.452 315.875V312.586C133.452 311.929 133.121 311.314 132.565 310.935L131.676 310.329C132.189 309.367 132.48 308.275 132.48 307.119C132.48 303.239 129.221 300.094 125.201 300.094C121.182 300.094 117.923 303.239 117.923 307.119C117.923 308.34 118.247 309.489 118.815 310.49L118.161 310.935C117.605 311.314 117.275 311.929 117.275 312.586V315.875C117.275 316.828 117.958 317.627 118.877 317.84Z" fill="#34364C"/>
<path d="M130.386 307.118C130.386 308.57 129.746 309.877 128.723 310.791L131.358 312.586V315.875H128.778C128.903 317.4 129.917 318.926 131.228 320.257C132.62 321.67 134.295 322.809 135.407 323.423L135.57 323.513V328.385H115.156V323.513L115.32 323.423C116.432 322.809 118.106 321.67 119.498 320.257C120.81 318.926 121.824 317.4 121.948 315.875H119.369V312.586L121.823 310.914C120.717 309.996 120.017 308.636 120.017 307.118C120.017 304.355 122.338 302.115 125.201 302.115C128.065 302.115 130.386 304.355 130.386 307.118Z" fill="#F4F7FA"/>
<rect width="50.25" height="48.5" transform="translate(301.5)" fill="#E8EDF9"/>
<path d="M323.322 6.31858C324.011 6.24379 324.694 6.50324 325.145 7.01141L329.417 11.8202C334.323 12.9903 337.165 16.5556 338.737 21.0063C340.357 25.5925 340.758 31.4148 340.758 37.3854C340.758 38.5014 339.82 39.4062 338.664 39.4062H319.142C318.031 39.4062 317.113 38.5679 317.052 37.4966C316.997 36.5407 317.225 34.882 317.919 33.1878L317.932 33.1568C315.96 34.1784 313.772 33.9337 312.147 32.8173C310.173 31.4606 309.075 28.8046 310.329 26.1818C311.234 24.2904 312.208 23.2888 312.946 22.5314C313.635 21.8238 313.922 21.5126 314.125 20.7286C315.356 15.9751 317.889 13.2368 320.609 11.9871C320.57 11.4455 320.602 10.9238 320.671 10.4501C320.842 9.27108 321.269 8.1815 321.703 7.38497C322.027 6.79272 322.633 6.39338 323.322 6.31858Z" fill="#F4F7FA"/>
<path fill-rule="evenodd" clip-rule="evenodd" d="M328.285 13.6501L323.556 8.3269C322.872 9.58113 322.208 11.7948 323.162 13.3928C322.699 13.4325 322.257 13.5081 321.914 13.6407C319.73 14.4866 317.334 16.672 316.156 21.2189C315.815 22.5355 315.202 23.1659 314.472 23.9153C313.784 24.6221 312.993 25.4347 312.231 27.0288C310.66 30.3126 314.898 33.5965 317.988 30.6139C319.726 28.937 321.244 28.2448 322.519 27.6636C324.355 26.8271 325.685 26.2206 326.436 23.2397C326.794 24.6302 326.651 27.9117 323.219 29.914C319.786 31.9163 319.071 36.1341 319.143 37.3855H338.664C338.664 25.5046 337.035 15.2396 328.285 13.6501Z" fill="#34364C"/>
<ellipse cx="322.438" cy="19.7031" rx="1.57031" ry="1.51562" fill="#F4F7FA"/>
<rect width="50.25" height="48.5" transform="translate(301.5 97)" fill="#E8EDF9"/>
<rect width="50.25" height="48.5" transform="translate(301.5 194)" fill="#E8EDF9"/>
<rect width="50.25" height="48.5" transform="translate(301.5 291)" fill="#E8EDF9"/>
<path d="M319.877 317.84C319.627 318.169 319.329 318.512 318.981 318.865C317.755 320.109 316.251 321.133 315.281 321.668L315.117 321.758C314.465 322.118 314.062 322.788 314.062 323.513V328.385C314.062 329.501 315 330.406 316.156 330.406H336.57C337.727 330.406 338.664 329.501 338.664 328.385V323.513C338.664 322.788 338.261 322.118 337.609 321.758L337.446 321.668C336.475 321.133 334.971 320.109 333.745 318.865C333.398 318.512 333.1 318.169 332.85 317.84C333.769 317.627 334.452 316.828 334.452 315.875V312.586C334.452 311.929 334.121 311.314 333.565 310.935L332.676 310.329C333.189 309.367 333.48 308.275 333.48 307.119C333.48 303.239 330.221 300.094 326.201 300.094C322.182 300.094 318.923 303.239 318.923 307.119C318.923 308.34 319.247 309.489 319.815 310.49L319.161 310.935C318.605 311.314 318.275 311.929 318.275 312.586V315.875C318.275 316.828 318.958 317.627 319.877 317.84Z" fill="#34364C"/>
<path d="M331.386 307.118C331.386 308.57 330.746 309.877 329.723 310.791L332.358 312.586V315.875H329.778C329.903 317.4 330.917 318.926 332.228 320.257C333.62 321.67 335.295 322.809 336.407 323.423L336.57 323.513V328.385H316.156V323.513L316.32 323.423C317.432 322.809 319.106 321.67 320.498 320.257C321.81 318.926 322.824 317.4 322.948 315.875H320.369V312.586L322.823 310.914C321.717 309.996 321.017 308.636 321.017 307.118C321.017 304.355 323.338 302.115 326.201 302.115C329.065 302.115 331.386 304.355 331.386 307.118Z" fill="#F4F7FA"/>
<rect width="50.25" height="48.5" transform="translate(50.25)" fill="#427119"/>
<path d="M72.0718 6.31858C72.761 6.24379 73.4439 6.50324 73.8953 7.01141L78.1671 11.8202C83.0727 12.9903 85.915 16.5556 87.4871 21.0063C89.1069 25.5925 89.5076 31.4148 89.5076 37.3854C89.5076 38.5014 88.5702 39.4062 87.4139 39.4062H67.8922C66.7807 39.4062 65.8629 38.5679 65.8017 37.4966C65.747 36.5407 65.9749 34.882 66.6693 33.1878L66.6821 33.1568C64.7102 34.1784 62.5217 33.9337 60.8971 32.8173C58.9228 31.4606 57.825 28.8046 59.0792 26.1818C59.9837 24.2904 60.9585 23.2888 61.6959 22.5314C62.3847 21.8238 62.6718 21.5126 62.8748 20.7286C64.1061 15.9751 66.6391 13.2368 69.3594 11.9871C69.3201 11.4455 69.3521 10.9238 69.4209 10.4501C69.5922 9.27108 70.0186 8.1815 70.4533 7.38497C70.7766 6.79272 71.3827 6.39338 72.0718 6.31858Z" fill="#F4F7FA"/>
<path fill-rule="evenodd" clip-rule="evenodd" d="M77.0349 13.6501L72.3062 8.3269C71.6217 9.58113 70.9581 11.7948 71.9122 13.3928C71.4491 13.4325 71.0066 13.5081 70.6643 13.6407C68.4804 14.4866 66.0842 16.672 64.9065 21.2189C64.5654 22.5355 63.9516 23.1659 63.2221 23.9153C62.534 24.6221 61.7429 25.4347 60.9807 27.0288C59.4104 30.3126 63.6483 33.5965 66.7385 30.6139C68.4758 28.937 69.9945 28.2448 71.2695 27.6636C73.1045 26.8271 74.4349 26.2206 75.1864 23.2397C75.544 24.6302 75.401 27.9117 71.9686 29.914C68.5362 31.9163 67.8211 36.1341 67.8926 37.3855H87.4143C87.4143 25.5046 85.7845 15.2396 77.0349 13.6501Z" fill="#34364C"/>
<ellipse cx="71.1875" cy="19.7031" rx="1.57031" ry="1.51562" fill="#F4F7FA"/>
<rect width="50.25" height="48.5" transform="translate(50.25 97)" fill="#427119"/>
<rect width="50.25" height="48.5" transform="translate(50.25 194)" fill="#427119"/>
<rect width="50.25" height="48.5" transform="translate(50.25 291)" fill="#427119"/>
<path d="M68.6266 317.84C68.3768 318.169 68.0787 318.512 67.7313 318.865C66.5051 320.109 65.0013 321.133 64.0307 321.668L63.8675 321.758C63.2151 322.118 62.8125 322.788 62.8125 323.513V328.385C62.8125 329.501 63.7499 330.406 64.9062 330.406H85.3203C86.4767 330.406 87.4141 329.501 87.4141 328.385V323.513C87.4141 322.788 87.0115 322.118 86.3591 321.758L86.1958 321.668C85.2253 321.133 83.7215 320.109 82.4953 318.865C82.1478 318.512 81.8498 318.169 81.6 317.84C82.5189 317.627 83.2016 316.828 83.2016 315.875V312.586C83.2016 311.929 82.8711 311.314 82.3153 310.935L81.4261 310.329C81.9392 309.367 82.2295 308.275 82.2295 307.119C82.2295 303.239 78.9709 300.094 74.9513 300.094C70.9316 300.094 67.673 303.239 67.673 307.119C67.673 308.34 67.9968 309.489 68.5648 310.49L67.9112 310.935C67.3555 311.314 67.0249 311.929 67.0249 312.586V315.875C67.0249 316.828 67.7077 317.627 68.6266 317.84Z" fill="#34364C"/>
<path d="M80.1358 307.118C80.1358 308.57 79.4957 309.877 78.4731 310.791L81.1079 312.586V315.875H78.5285C78.6529 317.4 79.6665 318.926 80.9781 320.257C82.3701 321.67 84.0449 322.809 85.157 323.423L85.3203 323.513V328.385H64.9062V323.513L65.0695 323.423C66.1817 322.809 67.8564 321.67 69.2484 320.257C70.5601 318.926 71.5737 317.4 71.6981 315.875H69.1187V312.586L71.5726 310.914C70.4669 309.996 69.7667 308.636 69.7667 307.118C69.7667 304.355 72.0879 302.115 74.9513 302.115C77.8146 302.115 80.1358 304.355 80.1358 307.118Z" fill="#F4F7FA"/>
<rect width="50.25" height="48.5" transform="translate(50.25 48.5)" fill="#E8EDF9"/>
<path d="M68.6266 75.3402C68.3768 75.6693 68.0787 76.0121 67.7313 76.3647C66.5051 77.609 65.0013 78.6328 64.0307 79.1681L63.8675 79.2581C63.2151 79.6179 62.8125 80.2875 62.8125 81.0127V85.8854C62.8125 87.0015 63.7499 87.9062 64.9062 87.9062H85.3203C86.4767 87.9062 87.4141 87.0015 87.4141 85.8854V81.0127C87.4141 80.2875 87.0115 79.6179 86.3591 79.2581L86.1958 79.1681C85.2253 78.6328 83.7215 77.609 82.4953 76.3647C82.1478 76.0121 81.8498 75.6693 81.6 75.3402C82.5189 75.1266 83.2016 74.328 83.2016 73.3755V70.086C83.2016 69.4293 82.8711 68.8137 82.3153 68.435L81.4261 67.8292C81.9392 66.8669 82.2295 65.775 82.2295 64.6186C82.2295 60.7389 78.9709 57.5938 74.9513 57.5938C70.9316 57.5938 67.673 60.7389 67.673 64.6186C67.673 65.84 67.9968 66.9892 68.5648 67.9897L67.9112 68.435C67.3555 68.8137 67.0249 69.4293 67.0249 70.086V73.3755C67.0249 74.328 67.7077 75.1266 68.6266 75.3402Z" fill="#F4F7FA"/>
<path d="M80.1358 64.6185C80.1358 66.0698 79.4957 67.3768 78.4731 68.2908L81.1079 70.0859V73.3754H78.5285C78.6529 74.9002 79.6665 76.4262 80.9781 77.7573C82.3701 79.1699 84.0449 80.3092 85.157 80.9226L85.3203 81.0126V85.8853H64.9062V81.0126L65.0695 80.9226C66.1817 80.3092 67.8564 79.1699 69.2484 77.7573C70.5601 76.4262 71.5737 74.9002 71.6981 73.3754H69.1187V70.0859L71.5726 68.414C70.4669 67.4963 69.7667 66.1363 69.7667 64.6185C69.7667 61.8549 72.0879 59.6145 74.9513 59.6145C77.8146 59.6145 80.1358 61.8549 80.1358 64.6185Z" fill="#34364C"/>
<rect width="50.25" height="48.5" transform="translate(50.25 145.5)" fill="#E8EDF9"/>
<rect width="50.25" height="48.5" transform="translate(50.25 242.5)" fill="#E8EDF9"/>
<rect width="50.25" height="48.5" transform="translate(50.25 339.5)" fill="#E8EDF9"/>
<path d="M72.0718 345.819C72.761 345.744 73.4439 346.003 73.8953 346.511L78.1671 351.32C83.0727 352.49 85.915 356.056 87.4871 360.506C89.1069 365.093 89.5076 370.915 89.5076 376.885C89.5076 378.001 88.5702 378.906 87.4139 378.906H67.8922C66.7807 378.906 65.8629 378.068 65.8017 376.997C65.747 376.041 65.9749 374.382 66.6693 372.688L66.6821 372.657C64.7102 373.678 62.5217 373.434 60.8971 372.317C58.9228 370.961 57.825 368.305 59.0792 365.682C59.9837 363.79 60.9585 362.789 61.6959 362.031C62.3847 361.324 62.6718 361.013 62.8748 360.229C64.1061 355.475 66.6391 352.737 69.3594 351.487C69.3201 350.946 69.3521 350.424 69.4209 349.95C69.5922 348.771 70.0186 347.681 70.4533 346.885C70.7766 346.293 71.3827 345.893 72.0718 345.819Z" fill="#34364C"/>
<path fill-rule="evenodd" clip-rule="evenodd" d="M77.0349 353.15L72.3062 347.827C71.6217 349.081 70.9581 351.295 71.9122 352.893C71.4491 352.933 71.0066 353.008 70.6643 353.141C68.4804 353.987 66.0842 356.172 64.9065 360.719C64.5654 362.035 63.9516 362.666 63.2221 363.415C62.534 364.122 61.7429 364.935 60.9807 366.529C59.4104 369.813 63.6483 373.096 66.7385 370.114C68.4758 368.437 69.9945 367.745 71.2695 367.164C73.1045 366.327 74.4349 365.721 75.1864 362.74C75.544 364.13 75.401 367.412 71.9686 369.414C68.5362 371.416 67.8211 375.634 67.8926 376.886H87.4143C87.4143 365.005 85.7845 354.74 77.0349 353.15Z" fill="#F4F7FA"/>
<ellipse cx="71.1875" cy="359.203" rx="1.57031" ry="1.51562" fill="#34364C"/>
<rect width="50.25" height="48.5" transform="translate(150.75 48.5)" fill="#E8EDF9"/>
<path d="M169.127 75.3402C168.877 75.6693 168.579 76.0121 168.231 76.3647C167.005 77.609 165.501 78.6328 164.531 79.1681L164.367 79.2581C163.715 79.6179 163.312 80.2875 163.312 81.0127V85.8854C163.312 87.0015 164.25 87.9062 165.406 87.9062H185.82C186.977 87.9062 187.914 87.0015 187.914 85.8854V81.0127C187.914 80.2875 187.511 79.6179 186.859 79.2581L186.696 79.1681C185.725 78.6328 184.221 77.609 182.995 76.3647C182.648 76.0121 182.35 75.6693 182.1 75.3402C183.019 75.1266 183.702 74.328 183.702 73.3755V70.086C183.702 69.4293 183.371 68.8137 182.815 68.435L181.926 67.8292C182.439 66.8669 182.73 65.775 182.73 64.6186C182.73 60.7389 179.471 57.5938 175.451 57.5938C171.432 57.5938 168.173 60.7389 168.173 64.6186C168.173 65.84 168.497 66.9892 169.065 67.9897L168.411 68.435C167.855 68.8137 167.525 69.4293 167.525 70.086V73.3755C167.525 74.328 168.208 75.1266 169.127 75.3402Z" fill="#F4F7FA"/>
<path d="M180.636 64.6185C180.636 66.0698 179.996 67.3768 178.973 68.2908L181.608 70.0859V73.3754H179.028C179.153 74.9002 180.167 76.4262 181.478 77.7573C182.87 79.1699 184.545 80.3092 185.657 80.9226L185.82 81.0126V85.8853H165.406V81.0126L165.57 80.9226C166.682 80.3092 168.356 79.1699 169.748 77.7573C171.06 76.4262 172.074 74.9002 172.198 73.3754H169.619V70.0859L172.073 68.414C170.967 67.4963 170.267 66.1363 170.267 64.6185C170.267 61.8549 172.588 59.6145 175.451 59.6145C178.315 59.6145 180.636 61.8549 180.636 64.6185Z" fill="#34364C"/>
<rect width="50.25" height="48.5" transform="translate(150.75 145.5)" fill="#E8EDF9"/>
<rect width="50.25" height="48.5" transform="translate(150.75 242.5)" fill="#E8EDF9"/>
<rect width="50.25" height="48.5" transform="translate(150.75 339.5)" fill="#E8EDF9"/>
<path d="M166.453 350.615C166.453 351.113 166.536 351.593 166.69 352.042L165.656 352.51C164.8 351.653 163.597 351.12 162.266 351.12C159.664 351.12 157.555 353.155 157.555 355.667C157.555 357.905 159.231 359.766 161.437 360.143L163.92 368.357C163.972 368.529 164.047 368.693 164.143 368.845L165.574 371.105L165.565 371.106C164.565 371.277 163.836 372.116 163.836 373.096V376.885C163.836 378.001 164.773 378.906 165.93 378.906L185.861 378.906C186.416 378.906 186.948 378.693 187.341 378.314C187.734 377.935 187.954 377.421 187.954 376.885V373.096C187.954 372.115 187.224 371.275 186.222 371.106L186.18 371.099L187.607 368.845C187.703 368.693 187.778 368.529 187.83 368.357L190.312 360.143C192.519 359.766 194.195 357.905 194.195 355.667C194.195 353.155 192.086 351.12 189.484 351.12C188.151 351.12 186.947 351.654 186.09 352.513L185.059 352.046C185.213 351.596 185.297 351.115 185.297 350.615C185.297 348.103 183.188 346.068 180.586 346.068C177.984 346.068 175.875 348.103 175.875 350.615C175.875 348.103 173.766 346.068 171.164 346.068C168.562 346.068 166.453 348.103 166.453 350.615Z" fill="#34364C"/>
<path d="M172.104 352.973C173.085 352.609 173.781 351.69 173.781 350.615C173.781 349.22 172.609 348.089 171.164 348.089C169.719 348.089 168.547 349.22 168.547 350.615C168.547 351.904 169.548 352.968 170.84 353.122L169.673 362.234L164.046 357.518C164.561 357.057 164.883 356.398 164.883 355.667C164.883 354.272 163.711 353.141 162.266 353.141C160.82 353.141 159.648 354.272 159.648 355.667C159.648 357.062 160.82 358.193 162.266 358.193C162.52 358.193 162.766 358.158 162.999 358.092L165.93 367.792L168.961 372.579L165.93 373.096V376.885L185.861 376.885V373.096L182.791 372.577L185.82 367.792L188.751 358.092C188.984 358.158 189.23 358.193 189.484 358.193C190.93 358.193 192.102 357.062 192.102 355.667C192.102 354.272 190.93 353.141 189.484 353.141C188.039 353.141 186.867 354.272 186.867 355.667C186.867 356.398 187.189 357.057 187.704 357.518L182.077 362.234L180.91 353.122C182.202 352.968 183.203 351.904 183.203 350.615C183.203 349.22 182.031 348.089 180.586 348.089C179.141 348.089 177.969 349.22 177.969 350.615C177.969 351.69 178.665 352.609 179.646 352.973L175.875 361.224L172.104 352.973Z" fill="#F4F7FA"/>
<rect width="50.25" height="48.5" transform="translate(251.25 48.5)" fill="#E8EDF9"/>
<path d="M269.627 75.3402C269.377 75.6693 269.079 76.0121 268.731 76.3647C267.505 77.609 266.001 78.6328 265.031 79.1681L264.867 79.2581C264.215 79.6179 263.812 80.2875 263.812 81.0127V85.8854C263.812 87.0015 264.75 87.9062 265.906 87.9062H286.32C287.477 87.9062 288.414 87.0015 288.414 85.8854V81.0127C288.414 80.2875 288.011 79.6179 287.359 79.2581L287.196 79.1681C286.225 78.6328 284.721 77.609 283.495 76.3647C283.148 76.0121 282.85 75.6693 282.6 75.3402C283.519 75.1266 284.202 74.328 284.202 73.3755V70.086C284.202 69.4293 283.871 68.8137 283.315 68.435L282.426 67.8292C282.939 66.8669 283.23 65.775 283.23 64.6186C283.23 60.7389 279.971 57.5938 275.951 57.5938C271.932 57.5938 268.673 60.7389 268.673 64.6186C268.673 65.84 268.997 66.9892 269.565 67.9897L268.911 68.435C268.355 68.8137 268.025 69.4293 268.025 70.086V73.3755C268.025 74.328 268.708 75.1266 269.627 75.3402Z" fill="#F4F7FA"/>
<path d="M281.136 64.6185C281.136 66.0698 280.496 67.3768 279.473 68.2908L282.108 70.0859V73.3754H279.528C279.653 74.9002 280.667 76.4262 281.978 77.7573C283.37 79.1699 285.045 80.3092 286.157 80.9226L286.32 81.0126V85.8853H265.906V81.0126L266.07 80.9226C267.182 80.3092 268.856 79.1699 270.248 77.7573C271.56 76.4262 272.574 74.9002 272.698 73.3754H270.119V70.0859L272.573 68.414C271.467 67.4963 270.767 66.1363 270.767 64.6185C270.767 61.8549 273.088 59.6145 275.951 59.6145C278.815 59.6145 281.136 61.8549 281.136 64.6185Z" fill="#34364C"/>
<rect width="50.25" height="48.5" transform="translate(251.25 145.5)" fill="#E8EDF9"/>
<rect width="50.25" height="48.5" transform="translate(251.25 242.5)" fill="#E8EDF9"/>
<rect width="50.25" height="48.5" transform="translate(251.25 339.5)" fill="#E8EDF9"/>
<path d="M271.305 354.092C271.095 353.535 270.98 352.932 270.98 352.305C270.98 349.418 273.404 347.078 276.395 347.078C279.386 347.078 281.811 349.418 281.811 352.305C281.811 353.151 281.601 353.952 281.23 354.661C281.764 354.697 282.283 354.929 282.662 355.346C284.718 357.614 286.517 360.847 286.517 364.595C286.517 367.275 285.561 369.26 284.269 370.691L286.722 371.106C287.724 371.275 288.454 372.115 288.454 373.096V376.885C288.454 377.421 288.234 377.935 287.841 378.314C287.448 378.693 286.916 378.906 286.361 378.906L266.43 378.906C265.273 378.906 264.336 378.001 264.336 376.885V373.096C264.336 372.116 265.065 371.277 266.065 371.106L268.278 370.729C266.969 369.295 265.997 367.299 265.997 364.595C265.997 361.671 267.171 359.125 268.548 357.173C269.413 355.947 270.393 354.905 271.305 354.092Z" fill="#34364C"/>
<path d="M277.422 364.328H275.328C275.328 360.617 276.494 356.913 279.074 354.201C279.478 353.67 279.717 353.015 279.717 352.305C279.717 350.534 278.23 349.099 276.395 349.099C274.561 349.099 273.073 350.534 273.073 352.305C273.073 353.179 273.435 353.971 274.022 354.549C271.947 355.977 268.091 359.804 268.091 364.595C268.091 369.431 272.019 371.388 274.079 371.79L266.43 373.096V376.885L286.361 376.885V373.096L278.53 371.771C280.614 371.328 284.423 369.357 284.423 364.595C284.423 361.477 282.918 358.698 281.086 356.677C279.074 358.193 277.422 361.729 277.422 364.328Z" fill="#F4F7FA"/>
<rect width="50.25" height="48.5" transform="translate(351.75 48.5)" fill="#E8EDF9"/>
<path d="M370.127 75.3402C369.877 75.6693 369.579 76.0121 369.231 76.3647C368.005 77.609 366.501 78.6328 365.531 79.1681L365.367 79.2581C364.715 79.6179 364.312 80.2875 364.312 81.0127V85.8854C364.312 87.0015 365.25 87.9062 366.406 87.9062H386.82C387.977 87.9062 388.914 87.0015 388.914 85.8854V81.0127C388.914 80.2875 388.511 79.6179 387.859 79.2581L387.696 79.1681C386.725 78.6328 385.221 77.609 383.995 76.3647C383.648 76.0121 383.35 75.6693 383.1 75.3402C384.019 75.1266 384.702 74.328 384.702 73.3755V70.086C384.702 69.4293 384.371 68.8137 383.815 68.435L382.926 67.8292C383.439 66.8669 383.73 65.775 383.73 64.6186C383.73 60.7389 380.471 57.5938 376.451 57.5938C372.432 57.5938 369.173 60.7389 369.173 64.6186C369.173 65.84 369.497 66.9892 370.065 67.9897L369.411 68.435C368.855 68.8137 368.525 69.4293 368.525 70.086V73.3755C368.525 74.328 369.208 75.1266 370.127 75.3402Z" fill="#F4F7FA"/>
<path d="M381.636 64.6185C381.636 66.0698 380.996 67.3768 379.973 68.2908L382.608 70.0859V73.3754H380.028C380.153 74.9002 381.167 76.4262 382.478 77.7573C383.87 79.1699 385.545 80.3092 386.657 80.9226L386.82 81.0126V85.8853H366.406V81.0126L366.57 80.9226C367.682 80.3092 369.356 79.1699 370.748 77.7573C372.06 76.4262 373.074 74.9002 373.198 73.3754H370.619V70.0859L373.073 68.414C371.967 67.4963 371.267 66.1363 371.267 64.6185C371.267 61.8549 373.588 59.6145 376.451 59.6145C379.315 59.6145 381.636 61.8549 381.636 64.6185Z" fill="#34364C"/>
<rect width="50.25" height="48.5" transform="translate(351.75 145.5)" fill="#E8EDF9"/>
<rect width="50.25" height="48.5" transform="translate(351.75 242.5)" fill="#E8EDF9"/>
<path d="M351.75 339.5H402V384C402 386.209 400.209 388 398 388H351.75V339.5Z" fill="#E8EDF9"/>
<path d="M371.641 348.089C372.022 348.089 372.38 348.187 372.688 348.359C372.995 348.187 373.353 348.089 373.734 348.089H379.492C379.874 348.089 380.231 348.187 380.539 348.359C380.847 348.187 381.205 348.089 381.586 348.089H386.82C387.977 348.089 388.914 348.993 388.914 350.109V354.656C388.914 355.292 388.604 355.891 388.077 356.273L384.846 358.612L385.761 366.558C386.003 368.662 387.017 369.729 388.495 371.631C388.767 371.981 388.914 372.407 388.914 372.844V376.885C388.914 378.002 387.977 378.906 386.82 378.906H366.406C365.25 378.906 364.312 378.002 364.312 376.885V372.844C364.312 372.407 364.459 371.981 364.731 371.631C366.209 369.729 367.224 368.662 367.466 366.558L368.381 358.612L365.15 356.273C364.623 355.891 364.312 355.292 364.312 354.656V350.109C364.312 348.993 365.25 348.089 366.406 348.089H371.641Z" fill="#34364C"/>
<path d="M366.406 350.109H371.641V353.141H373.734V350.109H379.492V353.141H381.586V350.109H386.82V354.656L382.633 357.687L383.68 366.781H369.547L370.594 357.687L366.406 354.656V350.109Z" fill="#F4F7FA"/>
<path d="M369.547 368.802H383.68L386.82 372.844V376.885H366.406V372.844L369.547 368.802Z" fill="#F4F7FA"/>
<rect width="50.25" height="48.5" transform="translate(251.25)" fill="#427119"/>
<path d="M271.305 14.5924C271.095 14.0345 270.98 13.4324 270.98 12.8051C270.98 9.91831 273.404 7.57812 276.395 7.57812C279.386 7.57812 281.811 9.91831 281.811 12.8051C281.811 13.6507 281.601 14.4523 281.23 15.161C281.764 15.1967 282.283 15.429 282.662 15.8464C284.718 18.1141 286.517 21.3475 286.517 25.0953C286.517 27.7746 285.561 29.7601 284.269 31.1907L286.722 31.6059C287.724 31.7754 288.454 32.615 288.454 33.5964V37.3854C288.454 37.9214 288.234 38.4354 287.841 38.8144C287.448 39.1933 286.916 39.4063 286.361 39.4063L266.43 39.4063C265.273 39.4063 264.336 38.5015 264.336 37.3854V33.5964C264.336 32.6161 265.065 31.7772 266.065 31.6064L268.278 31.2286C266.969 29.7954 265.997 27.7988 265.997 25.0953C265.997 22.1712 267.171 19.6248 268.548 17.6732C269.413 16.4466 270.393 15.4052 271.305 14.5924Z" fill="#F4F7FA"/>
<path d="M277.422 24.828H275.328C275.328 21.1173 276.494 17.4129 279.074 14.7013C279.478 14.1702 279.717 13.5145 279.717 12.805C279.717 11.0343 278.23 9.59888 276.395 9.59888C274.561 9.59888 273.073 11.0343 273.073 12.805C273.073 13.6786 273.435 14.4706 274.022 15.0489C271.947 16.4767 268.091 20.3037 268.091 25.0952C268.091 29.9306 272.019 31.8883 274.079 32.2902L266.43 33.5963V37.3853L286.361 37.3853V33.5963L278.53 32.2707C280.614 31.828 284.423 29.857 284.423 25.0952C284.423 21.9772 282.918 19.1978 281.086 17.177C279.074 18.6926 277.422 22.2291 277.422 24.828Z" fill="#34364C"/>
<rect width="50.25" height="48.5" transform="translate(251.25 97)" fill="#427119"/>
<rect width="50.25" height="48.5" transform="translate(251.25 194)" fill="#427119"/>
<rect width="50.25" height="48.5" transform="translate(251.25 291)" fill="#427119"/>
<path d="M269.627 317.84C269.377 318.169 269.079 318.512 268.731 318.865C267.505 320.109 266.001 321.133 265.031 321.668L264.867 321.758C264.215 322.118 263.812 322.788 263.812 323.513V328.385C263.812 329.501 264.75 330.406 265.906 330.406H286.32C287.477 330.406 288.414 329.501 288.414 328.385V323.513C288.414 322.788 288.011 322.118 287.359 321.758L287.196 321.668C286.225 321.133 284.721 320.109 283.495 318.865C283.148 318.512 282.85 318.169 282.6 317.84C283.519 317.627 284.202 316.828 284.202 315.875V312.586C284.202 311.929 283.871 311.314 283.315 310.935L282.426 310.329C282.939 309.367 283.23 308.275 283.23 307.119C283.23 303.239 279.971 300.094 275.951 300.094C271.932 300.094 268.673 303.239 268.673 307.119C268.673 308.34 268.997 309.489 269.565 310.49L268.911 310.935C268.355 311.314 268.025 311.929 268.025 312.586V315.875C268.025 316.828 268.708 317.627 269.627 317.84Z" fill="#34364C"/>
<path d="M281.136 307.118C281.136 308.57 280.496 309.877 279.473 310.791L282.108 312.586V315.875H279.528C279.653 317.4 280.667 318.926 281.978 320.257C283.37 321.67 285.045 322.809 286.157 323.423L286.32 323.513V328.385H265.906V323.513L266.07 323.423C267.182 322.809 268.856 321.67 270.248 320.257C271.56 318.926 272.574 317.4 272.698 315.875H270.119V312.586L272.573 310.914C271.467 309.996 270.767 308.636 270.767 307.118C270.767 304.355 273.088 302.115 275.951 302.115C278.815 302.115 281.136 304.355 281.136 307.118Z" fill="#F4F7FA"/>
<rect width="50.25" height="48.5" transform="translate(150.75)" fill="#427119"/>
<path d="M166.453 11.1145C166.453 11.6133 166.536 12.0932 166.69 12.5421L165.656 13.0101C164.8 12.1529 163.597 11.6197 162.266 11.6197C159.664 11.6197 157.555 13.6554 157.555 16.1666C157.555 18.4051 159.231 20.2657 161.437 20.6434L163.92 28.8574C163.972 29.0289 164.047 29.193 164.143 29.3454L165.574 31.6048L165.565 31.6063C164.565 31.7771 163.836 32.616 163.836 33.5963V37.3853C163.836 38.5014 164.773 39.4062 165.93 39.4062L185.861 39.4062C186.416 39.4062 186.948 39.1933 187.341 38.8143C187.734 38.4353 187.954 37.9213 187.954 37.3853V33.5963C187.954 32.6149 187.224 31.7754 186.222 31.6058L186.18 31.5987L187.607 29.3454C187.703 29.193 187.778 29.0289 187.83 28.8574L190.312 20.6434C192.519 20.2657 194.195 18.4051 194.195 16.1666C194.195 13.6554 192.086 11.6197 189.484 11.6197C188.151 11.6197 186.947 12.1542 186.09 13.0133L185.059 12.5462C185.213 12.0961 185.297 11.6148 185.297 11.1145C185.297 8.60333 183.188 6.56763 180.586 6.56763C177.984 6.56763 175.875 8.60333 175.875 11.1145C175.875 8.60333 173.766 6.56763 171.164 6.56763C168.562 6.56763 166.453 8.60333 166.453 11.1145Z" fill="#F4F7FA"/>
<path d="M172.104 13.4731C173.085 13.1087 173.781 12.1902 173.781 11.1147C173.781 9.71957 172.609 8.58862 171.164 8.58862C169.719 8.58862 168.547 9.71957 168.547 11.1147C168.547 12.4039 169.548 13.4675 170.84 13.6215L169.673 22.7345L164.046 18.0179C164.561 17.5566 164.883 16.898 164.883 16.1668C164.883 14.7717 163.711 13.6407 162.266 13.6407C160.82 13.6407 159.648 14.7717 159.648 16.1668C159.648 17.5618 160.82 18.6928 162.266 18.6928C162.52 18.6928 162.766 18.6577 162.999 18.5924L165.93 28.2918L168.961 33.0789L165.93 33.5964V37.3855L185.861 37.3855V33.5964L182.791 33.0768L185.82 28.2918L188.751 18.5924C188.984 18.6577 189.23 18.6928 189.484 18.6928C190.93 18.6928 192.102 17.5618 192.102 16.1668C192.102 14.7717 190.93 13.6407 189.484 13.6407C188.039 13.6407 186.867 14.7717 186.867 16.1668C186.867 16.898 187.189 17.5566 187.704 18.0179L182.077 22.7345L180.91 13.6215C182.202 13.4675 183.203 12.4039 183.203 11.1147C183.203 9.71957 182.031 8.58862 180.586 8.58862C179.141 8.58862 177.969 9.71957 177.969 11.1147C177.969 12.1902 178.665 13.1087 179.646 13.4731L175.875 21.724L172.104 13.4731Z" fill="#34364C"/>
<rect width="50.25" height="48.5" transform="translate(150.75 97)" fill="#427119"/>
<rect width="50.25" height="48.5" transform="translate(150.75 194)" fill="#427119"/>
<rect width="50.25" height="48.5" transform="translate(150.75 291)" fill="#427119"/>
<path d="M169.127 317.84C168.877 318.169 168.579 318.512 168.231 318.865C167.005 320.109 165.501 321.133 164.531 321.668L164.367 321.758C163.715 322.118 163.312 322.788 163.312 323.513V328.385C163.312 329.501 164.25 330.406 165.406 330.406H185.82C186.977 330.406 187.914 329.501 187.914 328.385V323.513C187.914 322.788 187.511 322.118 186.859 321.758L186.696 321.668C185.725 321.133 184.221 320.109 182.995 318.865C182.648 318.512 182.35 318.169 182.1 317.84C183.019 317.627 183.702 316.828 183.702 315.875V312.586C183.702 311.929 183.371 311.314 182.815 310.935L181.926 310.329C182.439 309.367 182.73 308.275 182.73 307.119C182.73 303.239 179.471 300.094 175.451 300.094C171.432 300.094 168.173 303.239 168.173 307.119C168.173 308.34 168.497 309.489 169.065 310.49L168.411 310.935C167.855 311.314 167.525 311.929 167.525 312.586V315.875C167.525 316.828 168.208 317.627 169.127 317.84Z" fill="#34364C"/>
<path d="M180.636 307.118C180.636 308.57 179.996 309.877 178.973 310.791L181.608 312.586V315.875H179.028C179.153 317.4 180.167 318.926 181.478 320.257C182.87 321.67 184.545 322.809 185.657 323.423L185.82 323.513V328.385H165.406V323.513L165.57 323.423C166.682 322.809 168.356 321.67 169.748 320.257C171.06 318.926 172.074 317.4 172.198 315.875H169.619V312.586L172.073 310.914C170.967 309.996 170.267 308.636 170.267 307.118C170.267 304.355 172.588 302.115 175.451 302.115C178.315 302.115 180.636 304.355 180.636 307.118Z" fill="#F4F7FA"/>
<path d="M351.75 0H398C400.209 0 402 1.79086 402 4V48.5H351.75V0Z" fill="#427119"/>
<path d="M371.641 8.58862C372.022 8.58862 372.38 8.68703 372.688 8.85898C372.995 8.68703 373.353 8.58862 373.734 8.58862H379.492C379.874 8.58862 380.231 8.68703 380.539 8.85898C380.847 8.68703 381.205 8.58862 381.586 8.58862H386.82C387.977 8.58862 388.914 9.49338 388.914 10.6095V15.1563C388.914 15.7924 388.604 16.3914 388.077 16.773L384.846 19.1117L385.761 27.0582C386.003 29.162 387.017 30.2294 388.495 32.1313C388.767 32.4811 388.914 32.9066 388.914 33.3438V37.3855C388.914 38.5016 387.977 39.4063 386.82 39.4063H366.406C365.25 39.4063 364.312 38.5016 364.312 37.3855V33.3438C364.312 32.9066 364.459 32.4811 364.731 32.1313C366.209 30.2294 367.224 29.162 367.466 27.0582L368.381 19.1117L365.15 16.773C364.623 16.3914 364.312 15.7924 364.312 15.1563V10.6095C364.312 9.49338 365.25 8.58862 366.406 8.58862H371.641Z" fill="#F4F7FA"/>
<path d="M366.406 10.6094H371.641V13.6406H373.734V10.6094H379.492V13.6406H381.586V10.6094H386.82V15.1562L382.633 18.1875L383.68 27.2812H369.547L370.594 18.1875L366.406 15.1562V10.6094Z" fill="#34364C"/>
<path d="M369.547 29.3021H383.68L386.82 33.3438V37.3854H366.406V33.3438L369.547 29.3021Z" fill="#34364C"/>
<rect width="50.25" height="48.5" transform="translate(351.75 97)" fill="#427119"/>
<rect width="50.25" height="48.5" transform="translate(351.75 194)" fill="#427119"/>
<rect width="50.25" height="48.5" transform="translate(351.75 291)" fill="#427119"/>
<path d="M370.127 317.84C369.877 318.169 369.579 318.512 369.231 318.865C368.005 320.109 366.501 321.133 365.531 321.668L365.367 321.758C364.715 322.118 364.312 322.788 364.312 323.513V328.385C364.312 329.501 365.25 330.406 366.406 330.406H386.82C387.977 330.406 388.914 329.501 388.914 328.385V323.513C388.914 322.788 388.511 322.118 387.859 321.758L387.696 321.668C386.725 321.133 385.221 320.109 383.995 318.865C383.648 318.512 383.35 318.169 383.1 317.84C384.019 317.627 384.702 316.828 384.702 315.875V312.586C384.702 311.929 384.371 311.314 383.815 310.935L382.926 310.329C383.439 309.367 383.73 308.275 383.73 307.119C383.73 303.239 380.471 300.094 376.451 300.094C372.432 300.094 369.173 303.239 369.173 307.119C369.173 308.34 369.497 309.489 370.065 310.49L369.411 310.935C368.855 311.314 368.525 311.929 368.525 312.586V315.875C368.525 316.828 369.208 317.627 370.127 317.84Z" fill="#34364C"/>
<path d="M381.636 307.118C381.636 308.57 380.996 309.877 379.973 310.791L382.608 312.586V315.875H380.028C380.153 317.4 381.167 318.926 382.478 320.257C383.87 321.67 385.545 322.809 386.657 323.423L386.82 323.513V328.385H366.406V323.513L366.57 323.423C367.682 322.809 369.356 321.67 370.748 320.257C372.06 318.926 373.074 317.4 373.198 315.875H370.619V312.586L373.073 310.914C371.967 309.996 371.267 308.636 371.267 307.118C371.267 304.355 373.588 302.115 376.451 302.115C379.315 302.115 381.636 304.355 381.636 307.118Z" fill="#F4F7FA"/>
<defs>
<clipPath id="clip0_80_2858">
<rect width="37.6875" height="36.375" fill="white" transform="translate(207.281 345.562)"/>
</clipPath>
<clipPath id="clip1_80_2858">
<rect width="37.6875" height="36.375" fill="white" transform="translate(207.281 6.0625)"/>
</clipPath>
</defs>
</svg>
