<svg width="12" height="22" viewBox="0 0 12 22" fill="none" xmlns="http://www.w3.org/2000/svg">
<path d="M7.75592 1.13793H7.1384V0.520414C7.1384 0.232897 6.90551 0 6.61799 0H5.38333C5.09544 0 4.86254 0.232897 4.86254 0.520414V1.13793H4.24502C3.95751 1.13793 3.72461 1.37083 3.72461 1.65834V2.51369C3.72461 2.80159 3.95751 3.03448 4.24502 3.03448H4.86254V4.55172H7.1384V3.03448H7.75592C8.04344 3.03448 8.27633 2.80159 8.27633 2.51407V1.65834C8.27633 1.37083 8.04344 1.13793 7.75592 1.13793Z" fill="#BE8400"/>
<path d="M8.27569 7.96555H3.72397L3.11821 5.23945C3.03969 4.88631 3.30824 4.55176 3.66972 4.55176H8.32993C8.69141 4.55176 8.95997 4.88631 8.88145 5.23945L8.27569 7.96555Z" fill="#E5B55B"/>
<path d="M9.4139 17.8276H2.58594L3.34456 9.86206H8.65528L9.4139 17.8276Z" fill="#E5B55B"/>
<path d="M9.79327 9.86213H2.20706C1.68324 9.86213 1.25879 9.43768 1.25879 8.91385C1.25879 8.39002 1.68324 7.96558 2.20706 7.96558H9.79327C10.3171 7.96558 10.7415 8.39002 10.7415 8.91385C10.7415 9.43768 10.3171 9.86213 9.79327 9.86213Z" fill="#BE8400"/>
<path d="M11.6899 20.1035H0.310547V22.0001H11.6899V20.1035Z" fill="#BA8100"/>
<path d="M10.9314 20.1035H1.06934V19.0251C1.06934 18.3636 1.6053 17.8276 2.26682 17.8276H9.73392C10.3954 17.8276 10.9314 18.3636 10.9314 19.0251V20.1035Z" fill="#D9A72E"/>
<path d="M2.7666 15.931H9.23308L9.05253 14.0344H2.94715L2.7666 15.931Z" fill="#BE8400"/>
</svg>
