<svg width="12" height="23" viewBox="0 0 12 23" fill="none" xmlns="http://www.w3.org/2000/svg">
<path d="M7.75543 1.67089H7.13791V1.05337C7.13791 0.765856 6.90502 0.532959 6.6175 0.532959H5.38284C5.09495 0.532959 4.86205 0.765856 4.86205 1.05337V1.67089H4.24453C3.95702 1.67089 3.72412 1.90379 3.72412 2.1913V3.04665C3.72412 3.33455 3.95702 3.56744 4.24453 3.56744H4.86205V5.08468H7.13791V3.56744H7.75543C8.04295 3.56744 8.27585 3.33455 8.27585 3.04703V2.1913C8.27585 1.90379 8.04295 1.67089 7.75543 1.67089Z" fill="#BE8400"/>
<path d="M8.27618 8.49851H3.72445L3.1187 5.77241C3.04018 5.41927 3.30873 5.08472 3.67021 5.08472H8.33042C8.6919 5.08472 8.96045 5.41927 8.88194 5.77241L8.27618 8.49851Z" fill="#E5B55B"/>
<path d="M9.41439 18.3605H2.58643L3.34505 10.395H8.65577L9.41439 18.3605Z" fill="#E5B55B"/>
<path d="M9.79327 10.3951H2.20706C1.68324 10.3951 1.25879 9.97064 1.25879 9.44681C1.25879 8.92298 1.68324 8.49854 2.20706 8.49854H9.79327C10.3171 8.49854 10.7415 8.92298 10.7415 9.44681C10.7415 9.97064 10.3171 10.3951 9.79327 10.3951Z" fill="#BE8400"/>
<path d="M11.6899 20.6365H0.310547V22.533H11.6899V20.6365Z" fill="#BA8100"/>
<path d="M10.9314 20.6365H1.06934V19.5581C1.06934 18.8966 1.6053 18.3606 2.26682 18.3606H9.73392C10.3954 18.3606 10.9314 18.8966 10.9314 19.5581V20.6365Z" fill="#D9A72E"/>
<path d="M2.76709 16.4639H9.23357L9.05302 14.5674H2.94764L2.76709 16.4639Z" fill="#BE8400"/>
</svg>
