<svg width="24" height="24" viewBox="0 0 24 24" fill="none" xmlns="http://www.w3.org/2000/svg">
<path d="M24 8.2002H0V19.4002H24V8.2002Z" fill="#CB8252"/>
<path d="M5.99961 18.2001C8.42966 18.2001 10.3996 16.2302 10.3996 13.8001C10.3996 11.3701 8.42966 9.40015 5.99961 9.40015C3.56956 9.40015 1.59961 11.3701 1.59961 13.8001C1.59961 16.2302 3.56956 18.2001 5.99961 18.2001Z" fill="white"/>
<path d="M17.9996 18.2001C20.4297 18.2001 22.3996 16.2302 22.3996 13.8001C22.3996 11.3701 20.4297 9.40015 17.9996 9.40015C15.5696 9.40015 13.5996 11.3701 13.5996 13.8001C13.5996 16.2302 15.5696 18.2001 17.9996 18.2001Z" fill="white"/>
<path d="M6.39961 9.40015H5.59961V10.6001H6.39961V9.40015Z" fill="#D1D4D1"/>
<path d="M6.39961 17.0002H5.59961V18.2002H6.39961V17.0002Z" fill="#D1D4D1"/>
<path d="M10.3992 13.4001H9.19922V14.2001H10.3992V13.4001Z" fill="#D1D4D1"/>
<path d="M2.79961 13.4001H1.59961V14.2001H2.79961V13.4001Z" fill="#D1D4D1"/>
<path d="M9.3938 10.9714L8.82812 10.4058L7.9796 11.2543L8.54528 11.82L9.3938 10.9714Z" fill="#D1D4D1"/>
<path d="M2.60522 16.6289L3.1709 17.1946L4.01942 16.3461L3.45374 15.7804L2.60522 16.6289Z" fill="#D1D4D1"/>
<path d="M7.9796 16.3458L8.82812 17.1943L9.3938 16.6287L8.54528 15.7801L7.9796 16.3458Z" fill="#D1D4D1"/>
<path d="M2.60558 10.9718L3.4541 11.8203L4.01978 11.2546L3.17126 10.4061L2.60558 10.9718Z" fill="#D1D4D1"/>
<path d="M18.3996 9.40015H17.5996V10.6001H18.3996V9.40015Z" fill="#D1D4D1"/>
<path d="M18.3996 17.0002H17.5996V18.2002H18.3996V17.0002Z" fill="#D1D4D1"/>
<path d="M22.3992 13.4001H21.1992V14.2001H22.3992V13.4001Z" fill="#D1D4D1"/>
<path d="M14.7996 13.4001H13.5996V14.2001H14.7996V13.4001Z" fill="#D1D4D1"/>
<path d="M21.3938 10.9714L20.8281 10.4058L19.9796 11.2543L20.5453 11.82L21.3938 10.9714Z" fill="#D1D4D1"/>
<path d="M14.6052 16.6289L15.1709 17.1946L16.0194 16.3461L15.4537 15.7804L14.6052 16.6289Z" fill="#D1D4D1"/>
<path d="M19.9796 16.3461L20.8281 17.1946L21.3938 16.6289L20.5453 15.7804L19.9796 16.3461Z" fill="#D1D4D1"/>
<path d="M14.6056 10.9718L15.4541 11.8203L16.0198 11.2546L15.1713 10.4061L14.6056 10.9718Z" fill="#D1D4D1"/>
<path d="M5.15145 12.9516L5.99985 12.1028L6.84825 12.9512C7.31705 13.42 7.31705 14.1796 6.84825 14.6484C6.37945 15.1172 5.61985 15.1172 5.15105 14.6484C4.68265 14.18 4.68265 13.42 5.15145 12.9516Z" fill="#7F5B53"/>
<path d="M19.1998 13.8001V15.0001H17.9998C17.337 15.0001 16.7998 14.4629 16.7998 13.8001C16.7998 13.1373 17.337 12.6001 17.9998 12.6001C18.6626 12.6001 19.1998 13.1373 19.1998 13.8001Z" fill="#7F5B53"/>
<path d="M6.8002 6.6001H5.2002V8.2001H6.8002V6.6001Z" fill="#ECF0F1"/>
<path d="M18.8002 6.6001H17.2002V8.2001H18.8002V6.6001Z" fill="#ECF0F1"/>
<path d="M7 6.6001H5C4.45 6.6001 4 6.1501 4 5.6001C4 5.0501 4.45 4.6001 5 4.6001H7C7.55 4.6001 8 5.0501 8 5.6001C8 6.1501 7.55 6.6001 7 6.6001Z" fill="#556080"/>
<path d="M19 6.6001H17C16.45 6.6001 16 6.1501 16 5.6001C16 5.0501 16.45 4.6001 17 4.6001H19C19.55 4.6001 20 5.0501 20 5.6001C20 6.1501 19.55 6.6001 19 6.6001Z" fill="#556080"/>
<path d="M12.3996 8.2002H11.5996V19.4002H12.3996V8.2002Z" fill="#805333"/>
</svg>
