<svg width="21" height="18" viewBox="0 0 21 18" fill="none" xmlns="http://www.w3.org/2000/svg">
<path d="M7.39476 16.988H1.38965C0.898488 16.988 0.5 16.5899 0.5 16.0984V10.0933C0.5 9.6021 0.898117 9.20361 1.38965 9.20361H7.39476C7.88592 9.20361 8.28441 9.60173 8.28441 10.0933V16.0984C8.28441 16.5895 7.88629 16.988 7.39476 16.988Z" fill="#D9A72E"/>
<path d="M7.39476 9.2036H1.38965C0.898488 9.2036 0.5 8.80548 0.5 8.31395V2.30884C0.5 1.81768 0.898117 1.41919 1.38965 1.41919H7.39476C7.88592 1.41919 8.28441 1.81731 8.28441 2.30884V8.31395C8.28441 8.80511 7.88629 9.2036 7.39476 9.2036Z" fill="#F9C97D"/>
<path d="M10.0592 2.23904L15.8657 0.707365C16.3409 0.582073 16.8276 0.865648 16.9529 1.3405L18.4846 7.14692C18.6099 7.62214 18.3263 8.10885 17.8514 8.23415L12.045 9.76582C11.5698 9.89111 11.0831 9.60754 10.9578 9.13269L9.42611 3.32626C9.30082 2.85104 9.5844 2.36433 10.0592 2.23904Z" fill="#D9A72E"/>
<path d="M12.0446 9.7659L17.851 8.23422C18.3263 8.10893 18.813 8.3925 18.9383 8.86735L20.4699 14.6738C20.5952 15.149 20.3117 15.6357 19.8368 15.761L14.0304 17.2927C13.5552 17.418 13.0685 17.1344 12.9432 16.6595L11.4115 10.8531C11.2862 10.3779 11.5694 9.89119 12.0446 9.7659Z" fill="#F9C97D"/>
<path d="M2.35368 11.7984C2.76313 11.7984 3.09505 11.4665 3.09505 11.057C3.09505 10.6476 2.76313 10.3157 2.35368 10.3157C1.94423 10.3157 1.6123 10.6476 1.6123 11.057C1.6123 11.4665 1.94423 11.7984 2.35368 11.7984Z" fill="#7C5A18"/>
<path d="M6.43083 11.7984C6.84027 11.7984 7.1722 11.4665 7.1722 11.057C7.1722 10.6476 6.84027 10.3157 6.43083 10.3157C6.02138 10.3157 5.68945 10.6476 5.68945 11.057C5.68945 11.4665 6.02138 11.7984 6.43083 11.7984Z" fill="#7C5A18"/>
<path d="M2.35368 15.8758C2.76313 15.8758 3.09505 15.5439 3.09505 15.1344C3.09505 14.725 2.76313 14.3931 2.35368 14.3931C1.94423 14.3931 1.6123 14.725 1.6123 15.1344C1.6123 15.5439 1.94423 15.8758 2.35368 15.8758Z" fill="#7C5A18"/>
<path d="M6.43083 15.8758C6.84027 15.8758 7.1722 15.5439 7.1722 15.1344C7.1722 14.725 6.84027 14.3931 6.43083 14.3931C6.02138 14.3931 5.68945 14.725 5.68945 15.1344C5.68945 15.5439 6.02138 15.8758 6.43083 15.8758Z" fill="#7C5A18"/>
<path d="M4.39274 13.9605C4.80219 13.9605 5.13411 13.6286 5.13411 13.2192C5.13411 12.8097 4.80219 12.4778 4.39274 12.4778C3.98329 12.4778 3.65137 12.8097 3.65137 13.2192C3.65137 13.6286 3.98329 13.9605 4.39274 13.9605Z" fill="#7C5A18"/>
<path d="M2.35368 4.01399C2.76313 4.01399 3.09505 3.68207 3.09505 3.27262C3.09505 2.86317 2.76313 2.53125 2.35368 2.53125C1.94423 2.53125 1.6123 2.86317 1.6123 3.27262C1.6123 3.68207 1.94423 4.01399 2.35368 4.01399Z" fill="#7C5A18"/>
<path d="M6.43083 4.01399C6.84027 4.01399 7.1722 3.68207 7.1722 3.27262C7.1722 2.86317 6.84027 2.53125 6.43083 2.53125C6.02138 2.53125 5.68945 2.86317 5.68945 3.27262C5.68945 3.68207 6.02138 4.01399 6.43083 4.01399Z" fill="#7C5A18"/>
<path d="M2.35368 8.09139C2.76313 8.09139 3.09505 7.75946 3.09505 7.35001C3.09505 6.94057 2.76313 6.60864 2.35368 6.60864C1.94423 6.60864 1.6123 6.94057 1.6123 7.35001C1.6123 7.75946 1.94423 8.09139 2.35368 8.09139Z" fill="#7C5A18"/>
<path d="M6.43083 8.09139C6.84027 8.09139 7.1722 7.75946 7.1722 7.35001C7.1722 6.94057 6.84027 6.60864 6.43083 6.60864C6.02138 6.60864 5.68945 6.94057 5.68945 7.35001C5.68945 7.75946 6.02138 8.09139 6.43083 8.09139Z" fill="#7C5A18"/>
<path d="M12.5041 8.46907C12.9135 8.46907 13.2454 8.13715 13.2454 7.7277C13.2454 7.31825 12.9135 6.98633 12.5041 6.98633C12.0946 6.98633 11.7627 7.31825 11.7627 7.7277C11.7627 8.13715 12.0946 8.46907 12.5041 8.46907Z" fill="#7C5A18"/>
<path d="M15.4074 3.48641C15.8168 3.48641 16.1488 3.15448 16.1488 2.74503C16.1488 2.33559 15.8168 2.00366 15.4074 2.00366C14.9979 2.00366 14.666 2.33559 14.666 2.74503C14.666 3.15448 14.9979 3.48641 15.4074 3.48641Z" fill="#7C5A18"/>
<path d="M13.924 5.85848C14.3334 5.85848 14.6654 5.52655 14.6654 5.11711C14.6654 4.70766 14.3334 4.37573 13.924 4.37573C13.5145 4.37573 13.1826 4.70766 13.1826 5.11711C13.1826 5.52655 13.5145 5.85848 13.924 5.85848Z" fill="#7C5A18"/>
<path d="M18.4328 14.9561C18.8422 14.9561 19.1742 14.6242 19.1742 14.2148C19.1742 13.8053 18.8422 13.4734 18.4328 13.4734C18.0233 13.4734 17.6914 13.8053 17.6914 14.2148C17.6914 14.6242 18.0233 14.9561 18.4328 14.9561Z" fill="#7C5A18"/>
<path d="M14.4904 15.9964C14.8998 15.9964 15.2318 15.6645 15.2318 15.255C15.2318 14.8456 14.8998 14.5137 14.4904 14.5137C14.0809 14.5137 13.749 14.8456 13.749 15.255C13.749 15.6645 14.0809 15.9964 14.4904 15.9964Z" fill="#7C5A18"/>
<path d="M17.3927 11.0135C17.8022 11.0135 18.1341 10.6816 18.1341 10.2721C18.1341 9.86269 17.8022 9.53076 17.3927 9.53076C16.9833 9.53076 16.6514 9.86269 16.6514 10.2721C16.6514 10.6816 16.9833 11.0135 17.3927 11.0135Z" fill="#7C5A18"/>
<path d="M13.4494 12.0538C13.8588 12.0538 14.1908 11.7219 14.1908 11.3124C14.1908 10.903 13.8588 10.571 13.4494 10.571C13.0399 10.571 12.708 10.903 12.708 11.3124C12.708 11.7219 13.0399 12.0538 13.4494 12.0538Z" fill="#7C5A18"/>
</svg>
