<svg width="15" height="20" viewBox="0 0 15 20" fill="none" xmlns="http://www.w3.org/2000/svg">
<path fill-rule="evenodd" clip-rule="evenodd" d="M14.969 12.9358C14.8045 16.8649 11.5685 20 7.59905 20C3.52435 20 0.221197 16.5858 0.221197 12.6221C0.221197 12.0923 0.2117 11.0335 1.00607 9.24716C1.48147 8.17808 1.77965 7.50646 1.94793 6.89253C2.04039 6.55511 2.2202 6.01904 2.73281 6.89253C3.03506 7.40756 3.04676 8.14833 3.04676 8.14833C3.04676 8.14833 4.17133 7.28536 4.93046 5.63672C6.04334 3.21985 5.15541 1.77512 4.85198 0.77048C4.74696 0.422936 4.68103 -0.20167 5.40139 0.0640896C6.13541 0.334951 8.07594 1.69334 9.09032 3.12511C10.538 5.16854 11.0525 7.12799 11.0525 7.12799C11.0525 7.12799 11.5161 6.55267 11.6804 5.95067C11.866 5.27089 11.8688 4.59762 12.4652 5.32285C13.0324 6.01252 13.8749 7.30859 14.349 8.54077C15.2099 10.7784 14.969 12.9358 14.969 12.9358Z" fill="url(#paint0_linear_156_3360)"/>
<path fill-rule="evenodd" clip-rule="evenodd" d="M7.59878 20C4.78114 20 2.49707 17.7159 2.49707 14.8983C2.49707 13.1982 3.18219 12.166 4.60808 10.7662C5.52105 9.87 6.37554 8.76921 6.73871 8.01965C6.81021 7.87209 6.97291 7.10315 7.60027 8.00348C7.92937 8.47566 8.44527 9.3154 8.77609 10.0321C9.34639 11.2677 9.48248 12.4652 9.48248 12.4652C9.48248 12.4652 10.0414 12.1359 10.4243 11.2879C10.5478 11.0146 10.7974 9.97996 11.4951 11.0144C12.0071 11.7736 12.7105 13.1385 12.7005 14.8983C12.7005 17.7159 10.4163 20 7.59878 20Z" fill="#FC9502"/>
<path fill-rule="evenodd" clip-rule="evenodd" d="M7.6774 14.4277C8.40341 14.4277 8.40341 15.7722 9.32564 17.5672C9.93973 18.7625 9.02119 20.0004 7.6774 20.0004C6.33361 20.0004 5.63672 18.911 5.63672 17.5672C5.63672 16.2235 6.95139 14.4277 7.6774 14.4277Z" fill="#FCE202"/>
<defs>
<linearGradient id="paint0_linear_156_3360" x1="7.61011" y1="20.0147" x2="7.61011" y2="0.0151131" gradientUnits="userSpaceOnUse">
<stop stop-color="#FF4C0D"/>
<stop offset="1" stop-color="#FC9502"/>
</linearGradient>
</defs>
</svg>
