<svg width="46" height="50" viewBox="0 0 46 50" fill="none" xmlns="http://www.w3.org/2000/svg">
<path fill-rule="evenodd" clip-rule="evenodd" d="M21.2651 5.46534C22.4196 5.36498 23.5805 5.36498 24.735 5.46534C24.8444 5.47446 25.0631 5.57472 25.1512 5.90895L26.0293 9.26637C26.476 10.9679 27.7005 12.2045 29.0586 12.879C29.5873 13.1403 30.0947 13.4351 30.5809 13.7602C31.8479 14.6048 33.5281 15.0454 35.2296 14.5805L38.5779 13.6599C38.9121 13.5687 39.1096 13.7085 39.1704 13.7997C39.8358 14.7416 40.4161 15.7473 40.9114 16.8046C40.9539 16.8988 40.9782 17.1389 40.7321 17.3819L38.2558 19.8309C37.0071 21.0645 36.5483 22.7386 36.6455 24.2548C36.6829 24.8436 36.6829 25.4343 36.6455 26.0231C36.5483 27.5393 37.0071 29.2134 38.2558 30.447L40.7321 32.896C40.9752 33.139 40.9539 33.3791 40.9114 33.4733C40.4207 34.5252 39.8381 35.5318 39.1704 36.4813C39.1096 36.5694 38.9091 36.7061 38.5779 36.618L35.2266 35.6974C33.5281 35.2325 31.8479 35.6731 30.5809 36.5177C30.0947 36.8428 29.5873 37.1376 29.0617 37.3989C27.6974 38.0734 26.476 39.307 26.0293 41.0115L25.1512 44.369C25.0631 44.7032 24.8444 44.8034 24.735 44.8126C23.5805 44.9126 22.4196 44.9126 21.2651 44.8126C21.1557 44.8034 20.937 44.7001 20.8489 44.369L19.9708 41.0115C19.5241 39.31 18.2997 38.0734 16.9415 37.3989C16.4157 37.1381 15.9072 36.8438 15.4193 36.5177C14.1522 35.6731 12.472 35.2325 10.7705 35.6974L7.4222 36.618C7.08798 36.7092 6.89048 36.5694 6.82971 36.4782C6.16216 35.5297 5.57957 34.5242 5.08871 33.4733C5.04617 33.3791 5.02187 33.139 5.26798 32.896L7.74427 30.447C8.99305 29.2134 9.45185 27.5393 9.35462 26.0231C9.31719 25.4343 9.31719 24.8436 9.35462 24.2548C9.45185 22.7386 8.99305 21.0645 7.74427 19.8309L5.26798 17.3819C5.02491 17.1389 5.04617 16.8988 5.08871 16.8046C5.57867 15.7523 6.1613 14.7457 6.82971 13.7966C6.89048 13.7085 7.09101 13.5687 7.4222 13.6599L10.7736 14.5805C12.472 15.0454 14.1522 14.6048 15.4193 13.7602C15.9054 13.4351 16.4128 13.1403 16.9385 12.879C18.3027 12.2045 19.5241 10.9709 19.9708 9.26637L20.8489 5.90895C20.937 5.57472 21.1557 5.47446 21.2651 5.46534ZM23.0001 0.831787C22.283 0.831787 21.572 0.862171 20.8701 0.922939C18.6126 1.12043 16.9506 2.79155 16.4402 4.75436L15.559 8.11482C15.5074 8.31535 15.322 8.59489 14.9179 8.79542C14.2169 9.14237 13.5389 9.53412 12.8883 9.96824C12.5146 10.2174 12.1803 10.2417 11.9768 10.184L8.62844 9.26637C6.67172 8.72858 4.399 9.32714 3.09856 11.1806C2.27811 12.3478 1.56232 13.5852 0.959531 14.8783C0.0024364 16.9292 0.622269 19.1989 2.06247 20.6239L4.53876 23.0728C4.69068 23.2187 4.83652 23.5195 4.80614 23.9661C4.75648 24.7472 4.75648 25.5307 4.80614 26.3118C4.83652 26.7584 4.69068 27.0592 4.53876 27.2051L2.06247 29.654C0.622269 31.079 0.0024364 33.3487 0.959531 35.3996C1.56721 36.7 2.28427 37.9367 3.09856 39.1004C4.399 40.9508 6.67172 41.5493 8.62844 41.0146L11.9798 40.0939C12.1803 40.0362 12.5146 40.0605 12.8883 40.3097C13.5355 40.7441 14.213 41.1361 14.9179 41.4825C15.322 41.683 15.5074 41.9625 15.5621 42.1631L16.4402 45.5235C16.9536 47.4863 18.6126 49.1575 20.8701 49.3519C22.2874 49.4751 23.7127 49.4751 25.13 49.3519C27.3875 49.1575 29.0495 47.4863 29.56 45.5235L30.4411 42.1631C30.4927 41.9625 30.6781 41.683 31.0822 41.4825C31.7833 41.1356 32.4612 40.7439 33.1118 40.3097C33.4856 40.0605 33.8198 40.0362 34.0234 40.0939L37.3717 41.0115C39.3284 41.5493 41.6011 40.9508 42.9015 39.0973C43.7158 37.9367 44.4359 36.7 45.0406 35.3996C45.9977 33.3487 45.3778 31.079 43.9346 29.654L41.4613 27.2051C41.3094 27.0592 41.1636 26.7584 41.194 26.3118C41.2435 25.5307 41.2435 24.7472 41.194 23.9661C41.1636 23.5195 41.3125 23.2187 41.4613 23.0728L43.9346 20.6239C45.3778 19.1989 45.9977 16.9292 45.0406 14.8783C44.4377 13.5842 43.722 12.3458 42.9015 11.1775C41.6011 9.32714 39.3284 8.72858 37.3717 9.26333L34.0203 10.184C33.8198 10.2417 33.4856 10.2174 33.1118 9.96824C32.4612 9.5341 31.7832 9.14235 31.0822 8.79542C30.6781 8.59489 30.4927 8.31535 30.438 8.11482L29.563 4.75132C29.0465 2.79155 27.3875 1.12043 25.13 0.925977C24.4217 0.863806 23.7111 0.83238 23.0001 0.831787ZM27.5576 25.1389C27.5576 26.3477 27.0775 27.5069 26.2228 28.3617C25.368 29.2164 24.2088 29.6965 23.0001 29.6965C21.7913 29.6965 20.6321 29.2164 19.7773 28.3617C18.9226 27.5069 18.4425 26.3477 18.4425 25.1389C18.4425 23.9302 18.9226 22.771 19.7773 21.9162C20.6321 21.0615 21.7913 20.5814 23.0001 20.5814C24.2088 20.5814 25.368 21.0615 26.2228 21.9162C27.0775 22.771 27.5576 23.9302 27.5576 25.1389ZM32.1152 25.1389C32.1152 27.5564 31.1549 29.8749 29.4455 31.5844C27.736 33.2938 25.4176 34.2541 23.0001 34.2541C20.5826 34.2541 18.2641 33.2938 16.5546 31.5844C14.8452 29.8749 13.8849 27.5564 13.8849 25.1389C13.8849 22.7215 14.8452 20.403 16.5546 18.6935C18.2641 16.9841 20.5826 16.0238 23.0001 16.0238C25.4176 16.0238 27.736 16.9841 29.4455 18.6935C31.1549 20.403 32.1152 22.7215 32.1152 25.1389Z" fill="#195571"/>
</svg>
