<svg width="51" height="43" viewBox="0 0 51 43" fill="none" xmlns="http://www.w3.org/2000/svg">
<path fill-rule="evenodd" clip-rule="evenodd" d="M25.8184 0.657715C12.0059 0.657715 0.818359 10.3656 0.818359 22.3513C0.818359 31.9507 7.97461 40.0587 17.9121 42.9331C19.1621 43.123 19.6309 42.4721 19.6309 41.9027C19.6309 41.3875 19.5996 39.6791 19.5996 37.8623C13.3184 38.8656 11.6934 36.5335 11.1934 35.3133C10.9121 34.6896 9.69336 32.7643 8.63086 32.249C7.75586 31.8423 6.50586 30.8389 8.59961 30.8118C10.5684 30.7847 11.9746 32.3846 12.4434 33.0354C14.6934 36.3166 18.2871 35.3946 19.7246 34.8251C19.9434 33.4151 20.5996 32.466 21.3184 31.9236C15.7559 31.3813 9.94336 29.5102 9.94336 21.2124C9.94336 18.8532 10.9121 16.9008 12.5059 15.3823C12.2559 14.8399 11.3809 12.6163 12.7559 9.63344C12.7559 9.63344 14.8496 9.06399 19.6309 11.857C21.6309 11.3689 23.7559 11.1249 25.8809 11.1249C28.0059 11.1249 30.1309 11.3689 32.1309 11.857C36.9121 9.03687 39.0059 9.63344 39.0059 9.63344C40.3809 12.6163 39.5059 14.8399 39.2559 15.3823C40.8496 16.9008 41.8184 18.8261 41.8184 21.2124C41.8184 29.5373 35.9746 31.3813 30.4121 31.9236C31.3184 32.6016 32.0996 33.9032 32.0996 35.9369C32.0996 38.8385 32.0684 41.1705 32.0684 41.9027C32.0684 42.4721 32.5371 43.1501 33.7871 42.9331C38.7501 41.4793 43.0627 38.7115 46.1179 35.0194C49.1731 31.3272 50.817 26.8967 50.8184 22.3513C50.8184 10.3656 39.6309 0.657715 25.8184 0.657715Z" fill="#1C3A47"/>
</svg>
