<svg width="24" height="24" viewBox="0 0 24 24" fill="none" xmlns="http://www.w3.org/2000/svg">
<g clip-path="url(#clip0_322_17138)">
<path d="M7.46094 7.6167H12.8974L15.3891 16.2698H7.46094V7.6167Z" fill="#80D440"/>
<path d="M5.87501 6.25769L4.06284 5.57812L2.4772 7.39029L3.6098 9.65549L1.14073 10.856L0.665039 13.2798H5.87501L6.78109 10.7881L5.87501 6.25769Z" fill="#FFC729"/>
<path d="M3.94988 10.3576C3.88192 10.3576 3.81397 10.335 3.74601 10.3123C2.86258 9.83662 2.25098 8.68137 2.25098 7.41286C2.25098 6.14434 3.27032 5.125 4.53883 5.125C4.92392 5.125 5.2637 5.21561 5.60348 5.37417C5.83 5.48743 5.92061 5.75926 5.80735 5.98578C5.69409 6.2123 5.42226 6.30291 5.19574 6.18965C4.96922 6.07639 4.788 6.03108 4.53883 6.03108C3.76866 6.03108 3.15706 6.64269 3.15706 7.41286C3.15706 8.31894 3.58745 9.20237 4.15375 9.49684C4.38027 9.6101 4.44822 9.88193 4.33496 10.1084C4.26701 10.267 4.10844 10.3576 3.94988 10.3576Z" fill="#C89406"/>
<path d="M3.06659 13.7101H0.778738C0.529566 13.7101 0.280394 13.5968 0.144481 13.393C0.00856912 13.1891 -0.036735 12.9626 0.0312212 12.736L0.393654 11.4222C0.846694 9.94984 1.88869 9.58741 3.02129 9.31559C3.27046 9.24763 3.51963 9.4062 3.56494 9.65537C3.63289 9.90454 3.47433 10.1537 3.22516 10.199C2.09256 10.4708 1.54891 10.7653 1.25443 11.6714L0.937303 12.804H3.06659C3.31577 12.804 3.51963 13.0079 3.51963 13.257C3.51963 13.5062 3.31577 13.7101 3.06659 13.7101Z" fill="#C89406"/>
<path d="M14.6422 16.9043H2.77249C2.43271 16.9043 2.16088 16.5645 2.27414 16.2247L2.88575 14.0954C3.4747 12.1247 4.83382 11.581 6.66864 11.1506" fill="#80D440"/>
<path d="M14.6416 17.3572H2.77189C2.45476 17.3572 2.16028 17.1986 1.97907 16.9494C1.79785 16.7003 1.75255 16.3831 1.84316 16.0887L2.45476 13.982C3.13432 11.6942 4.78792 11.1279 6.55478 10.7201C6.80395 10.6522 7.05312 10.8107 7.09843 11.0599C7.16638 11.3091 7.00782 11.5583 6.75865 11.6036C4.85588 12.0566 3.79123 12.5776 3.31554 14.2312L2.70393 16.3605C2.70393 16.3831 2.68128 16.4058 2.70393 16.4284C2.70393 16.4511 2.72659 16.4737 2.77189 16.4737H14.6416C14.8907 16.4737 15.0946 16.6776 15.0946 16.9268C15.0946 17.176 14.8907 17.3572 14.6416 17.3572Z" fill="#6EA62A"/>
<path d="M7.52892 11.7847C6.32836 11.0598 5.49023 9.33827 5.49023 7.50345C5.49023 5.71394 6.93997 4.28687 8.70682 4.28687C9.34108 4.28687 9.95268 4.46808 10.451 4.78521" fill="#80D440"/>
<path d="M7.52883 12.2379C7.43823 12.2379 7.37027 12.2152 7.30231 12.1699C5.94319 11.3545 5.03711 9.47434 5.03711 7.50361C5.03711 5.48758 6.69071 3.83398 8.70674 3.83398C9.40895 3.83398 10.1112 4.03785 10.7001 4.40029C10.904 4.5362 10.9719 4.80802 10.836 5.03454C10.7001 5.23841 10.4283 5.30637 10.2018 5.17045C9.77138 4.89863 9.22774 4.74007 8.70674 4.74007C7.18905 4.74007 5.94319 5.98593 5.94319 7.50361C5.94319 9.15721 6.69071 10.7429 7.75535 11.3998C7.95922 11.5357 8.02718 11.8075 7.91392 12.0114C7.82331 12.1699 7.6874 12.2379 7.52883 12.2379Z" fill="#6EA62A"/>
<path d="M14.4834 13.0532L15.3895 16.451L14.4834 13.0532Z" fill="#80D440"/>
<path d="M15.3891 16.904C15.1852 16.904 15.004 16.7681 14.9587 16.5643L14.0526 13.1665C13.9846 12.9173 14.1205 12.6681 14.3697 12.6228C14.6189 12.5548 14.8681 12.7134 14.9134 12.9399L15.8194 16.3377C15.8874 16.5869 15.7515 16.8361 15.5023 16.8814C15.457 16.904 15.4344 16.904 15.3891 16.904Z" fill="#6EA62A"/>
<path d="M9.27344 6.82403C9.27344 4.2417 11.3574 2.15771 13.9398 2.15771C16.5221 2.15771 18.6061 4.2417 18.6061 6.82403C18.6061 10.2445 16.5221 13.5064 13.9398 13.5064C11.3574 13.5064 9.27344 10.2671 9.27344 6.82403Z" fill="#D6913C"/>
<path d="M19.6475 21.8648H5.2861C4.74245 21.8648 4.35736 21.3438 4.49328 20.8228L5.44466 17.5156C5.94301 15.7941 7.30213 14.4576 9.04634 14.0046L9.31816 13.9366C9.56733 13.8687 9.83916 13.9593 10.0204 14.1631C11.1077 15.409 12.4894 15.5449 13.9618 15.5449C15.4342 15.5449 16.816 15.409 17.9033 14.1631C18.0845 13.9593 18.3563 13.8687 18.6055 13.9366L18.9 14.0046C20.6442 14.4576 22.0033 15.7941 22.5016 17.5156L22.9094 18.9201" fill="#FF793B"/>
<path d="M19.6475 22.3181H5.28607C4.90098 22.3181 4.5159 22.1369 4.28938 21.8197C4.04021 21.5026 3.9496 21.0949 4.06286 20.7098L5.01424 17.4026C5.55789 15.5225 7.05293 14.0727 8.93305 13.5744L9.20487 13.5064C9.61261 13.3932 10.0656 13.5291 10.3601 13.8689C11.3568 15.0015 12.6253 15.0921 13.9618 15.0921C15.2983 15.0921 16.5668 15.0015 17.5635 13.8689C17.8579 13.5291 18.311 13.3932 18.7187 13.5064L18.9906 13.5744C20.8707 14.0727 22.3884 15.5225 22.932 17.4026L23.3397 18.807C23.4077 19.0562 23.2718 19.3054 23.0226 19.3733C22.7734 19.4413 22.5243 19.3054 22.4563 19.0562L22.0486 17.6518C21.5955 16.0888 20.3497 14.8656 18.764 14.4578L18.4922 14.3899C18.4016 14.3672 18.2883 14.3899 18.2204 14.4805C16.9972 15.8849 15.4568 15.9982 13.9618 15.9982C12.4668 15.9982 10.9264 15.8849 9.68056 14.4578C9.61261 14.3899 9.522 14.3446 9.43139 14.3672L9.15957 14.4352C7.59658 14.8429 6.32806 16.0661 5.87502 17.6518L4.92364 20.959C4.90098 21.0722 4.92364 21.1855 4.99159 21.2761C5.0369 21.3214 5.1275 21.412 5.28607 21.412H19.6475C19.8966 21.412 20.1005 21.6159 20.1005 21.865C20.1005 22.1142 19.8966 22.3181 19.6475 22.3181Z" fill="#C6490F"/>
<path d="M18.8779 21.8648H22.7061C23.2498 21.8648 23.6349 21.3438 23.4989 20.8228L22.5476 17.5156" fill="#FF793B"/>
<path d="M22.706 22.3179H18.8778C18.6287 22.3179 18.4248 22.114 18.4248 21.8648C18.4248 21.6157 18.6287 21.4118 18.8778 21.4118H22.706C22.8646 21.4118 22.9552 21.3212 23.0005 21.2759C23.0685 21.1853 23.0911 21.0494 23.0685 20.9361L22.1171 17.6289C22.0491 17.3797 22.185 17.1306 22.4342 17.0626C22.6834 16.9946 22.9326 17.1306 23.0005 17.3797L23.9519 20.6869C24.0652 21.0947 23.9746 21.5024 23.7254 21.8195C23.4762 22.1367 23.0911 22.3179 22.706 22.3179Z" fill="#C6490F"/>
<path d="M18.5606 6.21242C18.402 9.88205 16.1368 13.2799 13.3506 13.2799C14.6644 12.2379 15.7744 9.74614 16.25 5.80469C17.7904 6.28038 18.5606 6.07651 18.5606 6.21242Z" fill="#C47615"/>
<path d="M13.917 13.9593C11.1535 13.9593 8.82031 10.6974 8.82031 6.82394C8.82031 6.68803 8.82031 6.55212 8.84296 6.39355C8.88827 6.14438 9.13744 5.98582 9.38661 6.03112C9.63579 6.07642 9.79435 6.3256 9.74905 6.57477C9.72639 6.64272 9.72639 6.73333 9.72639 6.82394C9.72639 10.1311 11.6745 13.0533 13.917 13.0533C16.1596 13.0533 18.1303 10.1311 18.1303 6.82394C18.1303 6.57477 18.1076 6.3256 18.0623 6.12173C18.017 5.87256 18.1756 5.64604 18.4248 5.60073C18.6739 5.55543 18.9005 5.71399 18.9458 5.96316C18.9911 6.23499 19.0137 6.52946 19.0137 6.84659C19.0364 10.6295 16.6353 13.9593 13.917 13.9593Z" fill="#A46210"/>
<path d="M9.27344 6.48425C9.45465 4.06049 11.4707 2.15771 13.9171 2.15771C16.2276 2.15771 18.1304 3.83397 18.5155 6.03121C18.5155 6.03121 16.5447 6.28039 15.6613 5.01187L15.5934 5.17044C14.8685 6.62017 12.558 7.36768 9.61322 6.71077L9.27344 6.48425Z" fill="#3A3030"/>
<path d="M11.6747 7.41285C10.9951 7.41285 10.2702 7.32224 9.50007 7.16368L9.40946 7.14102L8.79785 6.71064L8.8205 6.43881C9.02437 3.78852 11.2669 1.68188 13.9172 1.68188C16.4089 1.68188 18.5382 3.4714 18.9686 5.94047L19.0592 6.41616L18.5835 6.48412C18.5156 6.48412 16.862 6.68798 15.7747 5.7819C14.9819 6.8239 13.5095 7.41285 11.6747 7.41285ZM9.79454 6.28025C12.3089 6.8239 14.5062 6.28025 15.1857 4.96643L15.5708 4.06035L16.0465 4.73991C16.5222 5.41947 17.4056 5.55538 17.9493 5.57803C17.4056 3.81118 15.7973 2.58797 13.9172 2.58797C11.8106 2.58797 10.0437 4.17361 9.74924 6.23494L9.79454 6.28025Z" fill="#231F20"/>
</g>
<defs>
<clipPath id="clip0_322_17138">
<rect width="24" height="24" fill="white"/>
</clipPath>
</defs>
</svg>
