<svg width="24" height="24" viewBox="0 0 24 24" fill="none" xmlns="http://www.w3.org/2000/svg">
<g clip-path="url(#clip0_322_17216)">
<path d="M12.5175 17.5726H11.6603C7.63611 17.5726 4.37402 14.3105 4.37402 10.2864H19.8037C19.8037 14.3105 16.5416 17.5726 12.5175 17.5726Z" fill="#D2B467"/>
<path d="M20.7936 10.1917C20.4447 10.3202 20.1438 10.2864 20.1438 10.2864H19.8039C19.9171 12.1285 18.8049 13.8836 17.3918 15.3469C14.5013 18.3398 9.67693 18.3398 6.78687 15.3469C5.37334 13.8836 4.26112 12.1285 4.37427 10.2864C4.31255 10.2864 3.85695 10.2864 3.85695 10.2864C3.85695 10.2864 3.64908 10.3121 3.37863 10.2465L3.17847 12.0496C3.1189 12.5871 3.1189 13.1293 3.17847 13.6668L3.34091 15.1274C3.45706 16.1736 3.7978 17.183 4.33955 18.0856C4.64772 18.5991 5.01717 19.0727 5.44063 19.4957L9.08889 23.1444C9.08889 23.1444 9.65765 23.7998 10.2963 23.9819C10.3353 23.9931 10.3747 23.9613 10.3747 23.9206V22.919C10.3747 22.5701 10.6576 22.2872 11.0065 22.2872H12.0891H12.7432C13.092 22.2872 13.3749 22.5701 13.3749 22.919V23.9361C13.3749 23.9716 13.4045 24.0021 13.4401 23.9999C14.203 23.9545 15.0893 23.1444 15.0893 23.1444L18.738 19.4957C19.1615 19.0723 19.5309 18.5987 19.8391 18.0856C20.3808 17.183 20.7216 16.1736 20.8377 15.1274L21.0002 13.6668C21.0597 13.1293 21.0597 12.5871 21.0002 12.0496L20.7936 10.1917Z" fill="#464F5D"/>
<path d="M19.9613 4.37431C19.8953 3.97828 19.7059 3.61954 19.4268 3.34438C19.0561 2.97836 18.7029 2.59476 18.4346 2.14772L18.0768 1.55111C17.811 1.10836 17.3751 0.7942 16.8711 0.682334L15.4769 0.372027C14.3642 0.124723 13.2284 0 12.0888 0C10.9491 0 9.8133 0.124723 8.70065 0.372027L7.30641 0.681906C6.80237 0.793771 6.36649 1.10794 6.10075 1.55068L5.74287 2.1473C5.47456 2.59433 5.12183 2.97793 4.75066 3.34395C4.47206 3.61912 4.28219 3.97786 4.21619 4.37388L3.94531 6.00043H12.0888H20.2322L19.9613 4.37431Z" fill="#464F5D"/>
<path d="M20.1439 6.00049L21.3363 7.49117C21.83 8.10792 21.9303 8.99127 21.488 9.64618C20.984 10.3915 20.1439 10.2865 20.1439 10.2865H12.0005H3.85702C3.85702 10.2865 3.01696 10.3915 2.51292 9.64618C2.07061 8.9917 2.1709 8.10835 2.66465 7.49117L3.85702 6.00049H20.1439Z" fill="#4E5765"/>
<path d="M20.3983 14.6625L16.4741 17.715L14.7176 20.789C14.6002 20.9943 14.6718 21.2561 14.8771 21.3736C14.9439 21.4122 15.0172 21.4302 15.0892 21.4302C15.2384 21.4302 15.3828 21.3526 15.4617 21.2141L17.1341 18.2877L20.7845 15.4486C20.8012 15.3414 20.8256 15.2356 20.8376 15.1276L20.8912 14.645C20.7429 14.549 20.5462 14.5481 20.3983 14.6625Z" fill="#5C697C"/>
<path d="M7.6832 17.6923L3.75463 15.0731C3.62305 14.9852 3.46404 14.9861 3.33203 15.0504L3.3406 15.1275C3.37018 15.3928 3.41475 15.656 3.47261 15.9153L7.06558 18.3108L8.73242 20.8108C8.81428 20.9347 8.95058 21.0015 9.08901 21.0015C9.17045 21.0015 9.25317 20.9784 9.32646 20.9295C9.52362 20.7984 9.57676 20.5322 9.44518 20.3351L7.6832 17.6923Z" fill="#5C697C"/>
<path d="M15.2817 22.9524L15.9131 22.3211L13.2583 17.4907C12.9501 17.5396 12.6403 17.5696 12.3291 17.5799L15.2817 22.9524Z" fill="#5C697C"/>
<path d="M7.85156 21.9075L8.47732 22.5332L11.4154 17.5589C11.1094 17.531 10.8063 17.4809 10.505 17.4153L7.85156 21.9075Z" fill="#5C697C"/>
<path d="M17.663 3.80474C17.2382 3.37614 16.6875 3.12026 16.0248 3.03454L16.8499 0.676801L16.0068 0.489502L14.0781 6.00047H14.9868L15.7312 3.87332C16.282 3.9106 16.729 4.0829 17.0496 4.40392C17.6711 5.02625 17.6771 5.9949 17.6771 6.00475L18.5343 6.01075C18.5347 5.95675 18.536 4.68552 17.663 3.80474Z" fill="#5C697C"/>
<path d="M7.40459 0.660075L8.15893 3.0491C7.50145 3.13611 6.95413 3.39156 6.53152 3.81801C5.65846 4.69879 5.65975 5.97003 5.66018 6.0236L6.51738 6.0176C6.51738 6.00774 6.52338 5.0391 7.14485 4.41677C7.45773 4.10346 7.89148 3.93202 8.42423 3.88916L9.09071 6.00046H9.98906L8.24422 0.473633L7.40459 0.660075Z" fill="#5C697C"/>
<path d="M7.08105 10.2864C8.18256 13.9531 9.82625 16.2868 11.6607 16.2868H12.5179C14.3523 16.2868 15.996 13.9531 17.0975 10.2864H7.08105Z" fill="#DFC57D"/>
</g>
<defs>
<clipPath id="clip0_322_17216">
<rect width="24" height="24" fill="white"/>
</clipPath>
</defs>
</svg>
