<svg width="40" height="40" viewBox="0 0 40 40" fill="none" xmlns="http://www.w3.org/2000/svg">
<g clip-path="url(#clip0_137_1998)">
<path d="M38.9283 39.9998H8.21401C6.24186 39.9998 4.64258 38.4005 4.64258 36.4284C4.64258 34.4562 6.24186 32.8569 8.21401 32.8569H38.9283V39.9998Z" fill="#ECF0F1"/>
<path d="M35.3574 37.8569C35.3574 38.2511 35.6774 38.5711 36.0717 38.5711H38.9289V37.1426H36.0717C35.6774 37.1426 35.3574 37.4626 35.3574 37.8569Z" fill="#D1D4D1"/>
<path d="M36.0717 34.2856C35.6774 34.2856 35.3574 34.6056 35.3574 34.9999C35.3574 35.3942 35.6774 35.7142 36.0717 35.7142H38.9289V34.2856H36.0717Z" fill="#D1D4D1"/>
<path d="M36.8554 0H6.71544C5.57044 0 4.64258 0.927857 4.64258 2.07286V9.28571V27.8571V34.2857V36.4286C4.64258 34.4564 6.24186 32.8571 8.21401 32.8571H38.9283V2.07286C38.9283 0.927857 38.0004 0 36.8554 0Z" fill="#98614A"/>
<path d="M21.0714 17.1427L26.1221 12.092C23.3328 9.30268 18.81 9.30268 16.0207 12.092C13.2314 14.8812 13.2314 19.4041 16.0207 22.1934C18.81 24.9827 23.3328 24.9827 26.1221 22.1934L21.0714 17.1427Z" fill="#F0C419"/>
<path d="M20.3573 15.0002C21.1463 15.0002 21.7859 14.3606 21.7859 13.5716C21.7859 12.7827 21.1463 12.1431 20.3573 12.1431C19.5683 12.1431 18.9287 12.7827 18.9287 13.5716C18.9287 14.3606 19.5683 15.0002 20.3573 15.0002Z" fill="white"/>
<path d="M27.4997 16.4287H25.3569C24.9626 16.4287 24.6426 16.7487 24.6426 17.143C24.6426 17.5373 24.9626 17.8573 25.3569 17.8573H27.4997C27.894 17.8573 28.214 17.5373 28.214 17.143C28.214 16.7487 27.894 16.4287 27.4997 16.4287Z" fill="#FBD490"/>
<path d="M31.7854 16.4287H30.3569C29.9626 16.4287 29.6426 16.7487 29.6426 17.143C29.6426 17.5373 29.9626 17.8573 30.3569 17.8573H31.7854C32.1797 17.8573 32.4997 17.5373 32.4997 17.143C32.4997 16.7487 32.1797 16.4287 31.7854 16.4287Z" fill="#FBD490"/>
<path d="M7.49986 25.7141C8.28884 25.7141 8.92843 25.0745 8.92843 24.2855C8.92843 23.4965 8.28884 22.8569 7.49986 22.8569C6.71088 22.8569 6.07129 23.4965 6.07129 24.2855C6.07129 25.0745 6.71088 25.7141 7.49986 25.7141Z" fill="#38454F"/>
<path d="M7.49986 21.4284C8.28884 21.4284 8.92843 20.7888 8.92843 19.9999C8.92843 19.2109 8.28884 18.5713 7.49986 18.5713C6.71088 18.5713 6.07129 19.2109 6.07129 19.9999C6.07129 20.7888 6.71088 21.4284 7.49986 21.4284Z" fill="#38454F"/>
<path d="M7.49986 17.1428C8.28884 17.1428 8.92843 16.5032 8.92843 15.7142C8.92843 14.9252 8.28884 14.2856 7.49986 14.2856C6.71088 14.2856 6.07129 14.9252 6.07129 15.7142C6.07129 16.5032 6.71088 17.1428 7.49986 17.1428Z" fill="#38454F"/>
<path d="M7.49986 12.8571C8.28884 12.8571 8.92843 12.2175 8.92843 11.4286C8.92843 10.6396 8.28884 10 7.49986 10C6.71088 10 6.07129 10.6396 6.07129 11.4286C6.07129 12.2175 6.71088 12.8571 7.49986 12.8571Z" fill="#38454F"/>
<path d="M1.07129 11.4284C1.07129 12.2355 1.35057 12.9726 1.80343 13.5712C2.09272 13.1898 2.45486 12.8719 2.87129 12.6319C2.637 12.2884 2.49986 11.8741 2.49986 11.4284C2.49986 10.2469 3.46129 9.28551 4.64272 9.28551C5.82415 9.28551 6.78557 10.2469 6.78557 11.4284C6.78557 11.8234 7.10486 12.1426 7.49986 12.1426C7.89486 12.1426 8.21415 11.8234 8.21415 11.4284C8.21415 9.45908 6.612 7.85693 4.64272 7.85693C2.67343 7.85693 1.07129 9.45908 1.07129 11.4284Z" fill="#BDC3C7"/>
<path d="M2.87109 14.5106C3.39538 14.8134 3.99467 14.9999 4.64252 14.9999V13.5713C3.90681 13.5713 3.25752 13.9441 2.87109 14.5106Z" fill="#95A5A5"/>
<path d="M2.87109 18.7962C3.39538 19.0991 3.99467 19.2855 4.64252 19.2855V17.8569C3.90681 17.8569 3.25752 18.2298 2.87109 18.7962Z" fill="#95A5A5"/>
<path d="M2.87129 12.6324C2.45486 12.8724 2.09272 13.1902 1.80343 13.5716C1.35057 14.1702 1.07129 14.9074 1.07129 15.7145C1.07129 16.5216 1.35057 17.2588 1.80343 17.8574C2.09272 17.4759 2.45486 17.1581 2.87129 16.9181C2.637 16.5745 2.49986 16.1602 2.49986 15.7145C2.49986 15.2688 2.637 14.8545 2.87129 14.5109C3.25772 13.9445 3.907 13.5716 4.64272 13.5716C5.82415 13.5716 6.78557 14.5331 6.78557 15.7145C6.78557 16.1095 7.10486 16.4288 7.49986 16.4288C7.89486 16.4288 8.21415 16.1095 8.21415 15.7145C8.21415 13.7452 6.612 12.1431 4.64272 12.1431C3.99486 12.1431 3.39557 12.3295 2.87129 12.6324Z" fill="#BDC3C7"/>
<path d="M2.87109 23.0824C3.39538 23.3852 3.99467 23.5716 4.64252 23.5716V22.1431C3.90681 22.1431 3.25752 22.5159 2.87109 23.0824Z" fill="#95A5A5"/>
<path d="M2.87129 16.918C2.45486 17.158 2.09272 17.4759 1.80343 17.8573C1.35057 18.4559 1.07129 19.193 1.07129 20.0001C1.07129 20.8073 1.35057 21.5444 1.80343 22.143C2.09272 21.7616 2.45486 21.4437 2.87129 21.2037C2.637 20.8601 2.49986 20.4459 2.49986 20.0001C2.49986 19.5544 2.637 19.1401 2.87129 18.7966C3.25772 18.2301 3.907 17.8573 4.64272 17.8573C5.82415 17.8573 6.78557 18.8187 6.78557 20.0001C6.78557 20.3951 7.10486 20.7144 7.49986 20.7144C7.89486 20.7144 8.21415 20.3951 8.21415 20.0001C8.21415 18.0309 6.612 16.4287 4.64272 16.4287C3.99486 16.4287 3.39557 16.6151 2.87129 16.918Z" fill="#BDC3C7"/>
<path d="M2.87129 21.2036C2.45486 21.4436 2.09272 21.7615 1.80343 22.1429C1.35057 22.7415 1.07129 23.4786 1.07129 24.2858C1.07129 26.2551 2.67343 27.8572 4.64272 27.8572V26.4286C3.46129 26.4286 2.49986 25.4672 2.49986 24.2858C2.49986 23.8401 2.637 23.4258 2.87129 23.0822C3.25772 22.5158 3.907 22.1429 4.64272 22.1429C5.82415 22.1429 6.78557 23.1044 6.78557 24.2858C6.78557 24.6808 7.10486 25.0001 7.49986 25.0001C7.89486 25.0001 8.21415 24.6808 8.21415 24.2858C8.21415 22.3165 6.612 20.7144 4.64272 20.7144C3.99486 20.7144 3.39557 20.9008 2.87129 21.2036Z" fill="#BDC3C7"/>
</g>
<defs>
<clipPath id="clip0_137_1998">
<rect width="40" height="40" fill="white"/>
</clipPath>
</defs>
</svg>
