<svg width="24" height="24" viewBox="0 0 24 24" fill="none" xmlns="http://www.w3.org/2000/svg">
<path d="M1.125 21.6372C1.125 22.9422 2.18287 24 3.48781 24H20.0274C21.3324 24 22.3903 22.9422 22.3903 21.6372V9.77115C22.3903 9.09945 22.1044 8.45947 21.604 8.01127L13.3342 0.602908C12.4369 -0.200969 11.0784 -0.200969 10.181 0.602908L1.91123 8.01127C1.4109 8.45947 1.125 9.09945 1.125 9.77115V21.6372Z" fill="url(#paint0_linear_602_2790)"/>
<path d="M8.21387 24H15.3023V15.7302C15.3023 15.0777 14.7734 14.5488 14.1209 14.5488H9.39525C8.74283 14.5488 8.21387 15.0777 8.21387 15.7302V24Z" fill="white" fill-opacity="0.48"/>
<defs>
<linearGradient id="paint0_linear_602_2790" x1="11.7576" y1="24" x2="11.7576" y2="0" gradientUnits="userSpaceOnUse">
<stop stop-color="#E84909"/>
<stop offset="1" stop-color="#FF6200"/>
</linearGradient>
</defs>
</svg>
