<svg width="21" height="20" viewBox="0 0 21 20" fill="none" xmlns="http://www.w3.org/2000/svg">
<path d="M13.6066 3.23674C14.8018 2.03683 16.5502 2.01163 17.5181 2.98328C18.4878 3.95675 18.4617 5.71612 17.2656 6.91684L15.2458 8.94452C15.0022 9.1891 15.0029 9.58485 15.2474 9.82843C15.492 10.072 15.8878 10.0713 16.1313 9.82668L18.1512 7.79901C19.7439 6.20009 19.9439 3.64731 18.4037 2.1011C16.8617 0.553061 14.3145 0.754822 12.7209 2.35457L8.68124 6.40995C7.0885 8.00888 6.88853 10.5617 8.42875 12.1079C8.67235 12.3524 9.06809 12.3532 9.31267 12.1096C9.55717 11.866 9.55792 11.4703 9.31434 11.2257C8.34464 10.2523 8.37075 8.49285 9.56684 7.29212L13.6066 3.23674Z" fill="#00161F"/>
<path opacity="0.5" d="M12.5707 7.89217C12.3271 7.64762 11.9313 7.64685 11.6867 7.89045C11.4422 8.13406 11.4415 8.52975 11.6851 8.77433C12.6548 9.74783 12.6287 11.5072 11.4326 12.7079L7.3929 16.7633C6.19763 17.9633 4.44924 17.9884 3.48135 17.0168C2.51163 16.0433 2.53775 14.2839 3.73383 13.0832L5.7537 11.0554C5.9973 10.8109 5.99654 10.4152 5.75199 10.1716C5.50744 9.928 5.11171 9.92875 4.8681 10.1733L2.84824 12.201C1.25549 13.7999 1.05552 16.3527 2.59575 17.8989C4.13781 19.447 6.68494 19.2452 8.2785 17.6455L12.3182 13.5901C13.9109 11.9912 14.1109 9.43842 12.5707 7.89217Z" fill="#195571"/>
</svg>
