<svg width="107" height="34" viewBox="0 0 107 34" fill="none" xmlns="http://www.w3.org/2000/svg">
<path d="M36.7704 31H34.2904C34.0877 31 33.9384 30.9573 33.8424 30.872C33.757 30.776 33.7144 30.6267 33.7144 30.424V20.056C33.7144 19.8533 33.757 19.7093 33.8424 19.624C33.9384 19.528 34.0877 19.48 34.2904 19.48H39.1864C40.637 19.48 41.629 19.768 42.1624 20.344C42.6957 20.92 42.9624 21.672 42.9624 22.6V24.648C42.9624 25.576 42.6957 26.328 42.1624 26.904C41.629 27.48 40.637 27.768 39.1864 27.768H37.3464V30.424C37.3464 30.6267 37.2984 30.776 37.2024 30.872C37.117 30.9573 36.973 31 36.7704 31ZM37.3144 22.472V24.888H38.7544C39.0637 24.888 39.2664 24.808 39.3624 24.648C39.4584 24.488 39.5064 24.3067 39.5064 24.104V23.256C39.5064 23.0533 39.4584 22.872 39.3624 22.712C39.2664 22.552 39.0637 22.472 38.7544 22.472H37.3144ZM48.6404 22.84L47.8884 25.272H50.4004L49.6484 22.84C49.6057 22.744 49.5577 22.6747 49.5044 22.632C49.4617 22.5893 49.4084 22.568 49.3444 22.568H48.9444C48.8804 22.568 48.8217 22.5893 48.7684 22.632C48.7257 22.6747 48.683 22.744 48.6404 22.84ZM47.7284 30.424C47.7284 30.6267 47.6804 30.776 47.5844 30.872C47.499 30.9573 47.355 31 47.1524 31H44.8004C44.5977 31 44.4484 30.9573 44.3524 30.872C44.267 30.776 44.2244 30.6267 44.2244 30.424V26.2C44.2244 25.88 44.2724 25.512 44.3684 25.096C44.475 24.68 44.635 24.1947 44.8484 23.64L46.2404 20.008C46.3044 19.8267 46.4004 19.6933 46.5284 19.608C46.667 19.5227 46.843 19.48 47.0564 19.48H51.3604C51.563 19.48 51.7284 19.5227 51.8564 19.608C51.995 19.6933 52.0964 19.8267 52.1604 20.008L53.5524 23.64C53.7657 24.1947 53.9204 24.68 54.0164 25.096C54.123 25.512 54.1764 25.88 54.1764 26.2V30.424C54.1764 30.6267 54.1284 30.776 54.0324 30.872C53.947 30.9573 53.803 31 53.6004 31H51.1844C50.971 31 50.811 30.9573 50.7044 30.872C50.6084 30.776 50.5604 30.6267 50.5604 30.424V28.184H47.7284V30.424ZM64.4239 19.48H66.8079C67.0105 19.48 67.1545 19.528 67.2399 19.624C67.3359 19.7093 67.3839 19.8533 67.3839 20.056V26.264C67.3839 26.6053 67.3679 26.9253 67.3359 27.224C67.3145 27.512 67.2345 27.8533 67.0959 28.248L66.2959 30.424C66.2425 30.584 66.1625 30.7227 66.0559 30.84C65.9599 30.9467 65.8265 31 65.6559 31H63.5279C63.3572 31 63.2025 30.9627 63.0639 30.888C62.9252 30.8133 62.8345 30.6907 62.7919 30.52L62.0559 27.912C62.0239 27.8053 61.9812 27.736 61.9279 27.704C61.8852 27.6613 61.8319 27.64 61.7679 27.64H61.6239C61.5599 27.64 61.5012 27.6613 61.4479 27.704C61.4052 27.736 61.3679 27.8053 61.3359 27.912L60.5839 30.52C60.5412 30.68 60.4612 30.8027 60.3439 30.888C60.2265 30.9627 60.0825 31 59.9119 31H57.7999C57.6292 31 57.4799 30.9467 57.3519 30.84C57.2345 30.7333 57.1492 30.5947 57.0959 30.424L56.2959 28.216C56.1572 27.8213 56.0719 27.48 56.0399 27.192C56.0185 26.8933 56.0079 26.5733 56.0079 26.232V20.056C56.0079 19.8533 56.0505 19.7093 56.1359 19.624C56.2319 19.528 56.3812 19.48 56.5839 19.48H59.0479C59.2505 19.48 59.3945 19.528 59.4799 19.624C59.5759 19.7093 59.6239 19.8533 59.6239 20.056V25.944L60.5519 23.928C60.6372 23.7467 60.7492 23.6187 60.8879 23.544C61.0265 23.4693 61.1972 23.432 61.3999 23.432H62.0719C62.2745 23.432 62.4452 23.4693 62.5839 23.544C62.7225 23.6187 62.8345 23.7467 62.9199 23.928L63.8479 25.944V20.056C63.8479 19.8533 63.8905 19.7093 63.9759 19.624C64.0719 19.528 64.2212 19.48 64.4239 19.48ZM72.4247 31H70.0247C69.8221 31 69.6727 30.9573 69.5767 30.872C69.4914 30.776 69.4487 30.6267 69.4487 30.424V20.056C69.4487 19.8533 69.4914 19.7093 69.5767 19.624C69.6727 19.528 69.8221 19.48 70.0247 19.48H71.6887C71.8914 19.48 72.0621 19.512 72.2007 19.576C72.3501 19.64 72.4941 19.752 72.6327 19.912L75.7367 23.464V20.056C75.7367 19.8533 75.7794 19.7093 75.8647 19.624C75.9607 19.528 76.1101 19.48 76.3127 19.48H78.7127C78.9154 19.48 79.0594 19.528 79.1447 19.624C79.2407 19.7093 79.2887 19.8533 79.2887 20.056V30.424C79.2887 30.6267 79.2407 30.776 79.1447 30.872C79.0594 30.9573 78.9154 31 78.7127 31H76.3127C76.1101 31 75.9607 30.9573 75.8647 30.872C75.7794 30.776 75.7367 30.6267 75.7367 30.424V28.456L73.0007 25.144V30.424C73.0007 30.6267 72.9527 30.776 72.8567 30.872C72.7714 30.9573 72.6274 31 72.4247 31ZM86.8396 31H81.7836C81.5809 31 81.4316 30.9573 81.3356 30.872C81.2503 30.776 81.2076 30.6267 81.2076 30.424V28.552C81.2076 28.3493 81.2503 28.2053 81.3356 28.12C81.4316 28.024 81.5809 27.976 81.7836 27.976H86.0876C86.2263 27.976 86.3276 27.9333 86.3916 27.848C86.4663 27.752 86.5036 27.64 86.5036 27.512C86.5036 27.3307 86.4663 27.1973 86.3916 27.112C86.3276 27.0267 86.2263 26.9787 86.0876 26.968L83.6876 26.632C82.9409 26.5253 82.3383 26.28 81.8796 25.896C81.4316 25.512 81.2076 24.872 81.2076 23.976V22.296C81.2076 21.3893 81.5009 20.696 82.0876 20.216C82.6743 19.7253 83.4849 19.48 84.5196 19.48H88.9996C89.2023 19.48 89.3463 19.528 89.4316 19.624C89.5276 19.7093 89.5756 19.8533 89.5756 20.056V21.96C89.5756 22.1627 89.5276 22.312 89.4316 22.408C89.3463 22.4933 89.2023 22.536 88.9996 22.536H85.2716C85.1329 22.536 85.0263 22.584 84.9516 22.68C84.8769 22.7653 84.8396 22.8773 84.8396 23.016C84.8396 23.1547 84.8769 23.272 84.9516 23.368C85.0263 23.464 85.1329 23.5173 85.2716 23.528L87.6556 23.848C88.4023 23.9547 89.0049 24.2 89.4636 24.584C89.9223 24.968 90.1516 25.608 90.1516 26.504V28.184C90.1516 29.0907 89.8529 29.7893 89.2556 30.28C88.6689 30.76 87.8636 31 86.8396 31Z" fill="#8ECAE6"/>
<path d="M1.11771 32.7899C1.53126 32.8957 2.2859 33.0903 3.23666 33.268C5.15522 33.653 7.692 34 10.6423 34C12.8849 34 15.362 33.8011 17.9883 33.268C18.9519 33.0734 19.7022 32.8957 20.1158 32.7899C20.4057 32.7137 20.6104 32.4556 20.6104 32.1552V29.9762C20.6104 29.8916 20.5933 29.8112 20.5635 29.735L20.3759 29.2865C20.329 29.1765 20.2821 29.0665 20.2352 28.9607C20.3545 28.6942 20.5123 28.2964 20.5677 27.9537C20.6956 27.1583 20.329 26.5109 20.0859 26.0836C20.0433 26.0116 19.9921 25.9482 19.9282 25.8974L17.9499 24.315L17.7879 24.133L18.3976 23.4899C18.5767 23.2995 18.615 23.0202 18.5127 22.7833C18.4616 22.6648 18.3763 22.5675 18.2697 22.4998L18.1461 22.3983C16.3042 20.9131 15.7073 20.1938 15.524 19.8384C15.0764 19.0007 14.9442 18.5141 14.9314 18.5141L14.8888 16.3943C15.4686 16.3224 16.0484 16.2504 16.6112 16.1743C16.9395 16.1277 17.1782 15.8527 17.1782 15.5269V14.046C17.1782 13.8514 17.0887 13.6652 16.9352 13.5383L16.7476 13.386C16.317 13.0348 15.8821 12.6836 15.4473 12.3324C16.6368 11.1096 17.3701 9.52717 17.5534 8.54555C17.8391 7.00965 17.4298 5.48222 16.3938 4.25096C15.2128 2.84199 13.3837 2 11.5078 2H9.71715C7.84122 2 6.01218 2.84199 4.8312 4.25096C3.79944 5.48222 3.38588 7.00965 3.6758 8.55401C4.00408 10.2042 5.07848 11.5793 5.78196 12.3282C5.28739 12.7259 4.79283 13.1279 4.28974 13.5383C4.13625 13.661 4.04672 13.8472 4.04672 14.046V15.5269C4.04672 15.8527 4.28974 16.132 4.61376 16.1743C5.17228 16.2504 5.75638 16.3224 6.34047 16.3943L6.30637 18.4168C6.30637 18.421 6.19978 18.9245 5.71374 19.8511C5.45367 20.3589 4.42617 21.3489 3.00217 22.466C2.99364 22.4702 2.98937 22.4829 2.98085 22.4913C2.76767 22.6013 2.6014 22.8044 2.6014 23.0456C2.6014 23.3249 2.74636 23.5534 2.97658 23.6464L3.4413 24.1415L1.29251 25.9016C1.22856 25.9524 1.17313 26.0159 1.13476 26.0878C0.891741 26.5151 0.525081 27.1667 0.652986 27.9537C0.704148 28.3007 0.86616 28.7026 0.985538 28.965C0.942903 29.075 0.896005 29.1807 0.844843 29.2908L0.657249 29.7393C0.627405 29.8154 0.610352 29.9 0.610352 29.9804V32.1595C0.618879 32.4514 0.827789 32.7137 1.11771 32.7899ZM5.36413 14.9388V14.3337C5.96529 13.8429 6.5707 13.3521 7.18891 12.8613C7.34666 12.7386 7.43619 12.5482 7.43619 12.3493C7.43619 12.1505 7.34666 11.9643 7.18891 11.8374C7.11216 11.7781 6.98852 11.6724 6.84783 11.5285C5.8587 10.5088 5.17228 9.32408 4.96337 8.28745C4.75019 7.13659 5.06143 5.99418 5.83738 5.06757C6.75829 3.96747 8.24199 3.28626 9.71289 3.28626H11.5078C12.9745 3.28626 14.4624 3.96747 15.3833 5.06757C16.1593 5.99418 16.4705 7.14082 16.2573 8.28745C16.1294 8.97713 15.524 10.4072 14.3857 11.5158C14.2364 11.6597 14.1085 11.7739 14.0147 11.8501C13.8655 11.977 13.7803 12.1632 13.7845 12.3578C13.7888 12.5524 13.8783 12.7386 14.0318 12.8571C14.65 13.3479 15.2554 13.8387 15.8566 14.3295V14.9346C15.2895 15.0107 14.7182 15.0869 14.164 15.1503C13.6907 15.1842 13.1493 15.2223 12.6163 15.2519L12.4287 15.2561C11.171 15.2857 10.0497 15.2857 8.79198 15.2561L8.62996 15.2519C8.07145 15.218 7.52572 15.1842 7.08232 15.1503C6.50675 15.0911 5.93118 15.0192 5.36413 14.9388ZM6.89046 20.435C7.46177 19.3349 7.58967 18.7172 7.61526 18.5437L7.65363 16.5085C7.94354 16.5297 8.25051 16.5466 8.57454 16.5678L8.76213 16.572C9.40165 16.5889 10.0156 16.6016 10.6125 16.6016C11.2094 16.6016 11.8233 16.5889 12.4628 16.572L12.676 16.5678C12.9915 16.5466 13.2729 16.5255 13.5713 16.5085L13.6182 18.6537C13.631 18.7214 13.7589 19.3434 14.3473 20.435C14.6756 21.0781 15.5155 21.8863 16.3511 22.6098C15.6562 22.7198 14.9655 22.851 14.2706 22.9187C11.8446 23.1599 9.3846 23.1599 6.95868 22.9187C6.26799 22.851 5.56452 22.7537 4.84825 22.6437C5.72653 21.8863 6.56644 21.0697 6.89046 20.435ZM2.23474 26.824L4.26842 25.1739L4.8312 24.5434C4.98895 24.37 4.99321 24.1415 4.92926 23.9299C5.56452 24.0272 6.19125 24.1499 6.83077 24.2134C8.0885 24.3403 9.35476 24.3996 10.6167 24.3996C11.883 24.3996 13.1493 24.3361 14.407 24.2134C15.038 24.1499 15.669 24.0696 16.2829 23.9765C16.2403 24.1753 16.2531 24.3827 16.398 24.5434L17.0376 25.2458L18.9945 26.824C19.1821 27.1625 19.31 27.4502 19.2631 27.7422C19.2332 27.9283 19.1309 28.1864 19.0286 28.4065C18.7216 28.4826 18.2825 28.5842 17.7623 28.6899C11.5504 29.9593 6.14862 29.2358 3.47968 28.6899C2.951 28.5799 2.5076 28.4784 2.19637 28.4022C2.09831 28.1822 1.99172 27.9241 1.96614 27.7379C1.91924 27.4502 2.04715 27.1625 2.23474 26.824ZM1.93629 30.1031L2.0642 29.7985C2.07273 29.7731 2.08552 29.752 2.09404 29.7266C2.39675 29.7985 2.77194 29.8831 3.21108 29.9762C4.84399 30.3105 7.46603 30.7082 10.6636 30.7082C12.8849 30.7082 15.3876 30.5136 18.0267 29.9762C18.4743 29.8831 18.8538 29.7985 19.1267 29.7308C19.1352 29.7562 19.148 29.7773 19.1565 29.8027L19.2844 30.1074V31.6433C18.8794 31.7406 18.3464 31.8591 17.7197 31.986C11.8617 33.1707 6.75403 32.6418 3.4882 31.9818C2.86573 31.8675 2.33706 31.7448 1.93629 31.6475V30.1031Z" fill="#8ECAE6"/>
<path d="M30.5144 15H25.4744C24.141 15 23.149 14.7333 22.4984 14.2C21.8584 13.6667 21.5384 12.8453 21.5384 11.736V6.744C21.5384 5.63467 21.8584 4.81333 22.4984 4.28C23.149 3.74667 24.141 3.48 25.4744 3.48H29.4744C29.677 3.48 29.821 3.528 29.9064 3.624C30.0024 3.70933 30.0504 3.85333 30.0504 4.056V5.992C30.0504 6.19467 30.0024 6.344 29.9064 6.44C29.821 6.52533 29.677 6.568 29.4744 6.568H26.1464C25.8157 6.568 25.5704 6.63733 25.4104 6.776C25.2504 6.904 25.1704 7.10133 25.1704 7.368V11.192C25.1704 11.4587 25.229 11.656 25.3464 11.784C25.4744 11.912 25.661 11.976 25.9064 11.976H27.4584V9.48C27.4584 9.27733 27.501 9.13333 27.5864 9.048C27.6824 8.952 27.8317 8.904 28.0344 8.904H30.5144C30.717 8.904 30.861 8.952 30.9464 9.048C31.0424 9.13333 31.0904 9.27733 31.0904 9.48V14.424C31.0904 14.6267 31.0424 14.776 30.9464 14.872C30.861 14.9573 30.717 15 30.5144 15ZM37.2185 6.84L36.4665 9.272H38.9785L38.2265 6.84C38.1838 6.744 38.1358 6.67467 38.0825 6.632C38.0398 6.58933 37.9865 6.568 37.9225 6.568H37.5225C37.4585 6.568 37.3998 6.58933 37.3465 6.632C37.3038 6.67467 37.2611 6.744 37.2185 6.84ZM36.3065 14.424C36.3065 14.6267 36.2585 14.776 36.1625 14.872C36.0771 14.9573 35.9331 15 35.7305 15H33.3785C33.1758 15 33.0265 14.9573 32.9305 14.872C32.8451 14.776 32.8025 14.6267 32.8025 14.424V10.2C32.8025 9.88 32.8505 9.512 32.9465 9.096C33.0531 8.68 33.2131 8.19467 33.4265 7.64L34.8185 4.008C34.8825 3.82667 34.9785 3.69333 35.1065 3.608C35.2451 3.52267 35.4211 3.48 35.6345 3.48H39.9385C40.1411 3.48 40.3065 3.52267 40.4345 3.608C40.5731 3.69333 40.6745 3.82667 40.7385 4.008L42.1305 7.64C42.3438 8.19467 42.4985 8.68 42.5945 9.096C42.7011 9.512 42.7545 9.88 42.7545 10.2V14.424C42.7545 14.6267 42.7065 14.776 42.6105 14.872C42.5251 14.9573 42.3811 15 42.1785 15H39.7625C39.5491 15 39.3891 14.9573 39.2825 14.872C39.1865 14.776 39.1385 14.6267 39.1385 14.424V12.184H36.3065V14.424ZM47.69 15H45.306C45.1033 15 44.954 14.9573 44.858 14.872C44.7726 14.776 44.73 14.6267 44.73 14.424V4.056C44.73 3.85333 44.7726 3.70933 44.858 3.624C44.954 3.528 45.1033 3.48 45.306 3.48H47.882C48.0526 3.48 48.1913 3.51733 48.298 3.592C48.4153 3.66667 48.522 3.78933 48.618 3.96L50.058 6.568C50.1113 6.664 50.154 6.73333 50.186 6.776C50.2286 6.81867 50.282 6.84 50.346 6.84H50.49C50.554 6.84 50.602 6.81867 50.634 6.776C50.6766 6.73333 50.7246 6.664 50.778 6.568L52.202 3.96C52.298 3.78933 52.3993 3.66667 52.506 3.592C52.6233 3.51733 52.7673 3.48 52.938 3.48H55.53C55.7326 3.48 55.8766 3.528 55.962 3.624C56.058 3.70933 56.106 3.85333 56.106 4.056V14.424C56.106 14.6267 56.058 14.776 55.962 14.872C55.8766 14.9573 55.7326 15 55.53 15H53.066C52.8633 15 52.714 14.9573 52.618 14.872C52.5326 14.776 52.49 14.6267 52.49 14.424V8.792L51.546 10.536C51.45 10.7173 51.3326 10.8507 51.194 10.936C51.066 11.0107 50.9006 11.048 50.698 11.048H50.058C49.8553 11.048 49.6846 11.0107 49.546 10.936C49.418 10.8507 49.306 10.7173 49.21 10.536L48.266 8.792V14.424C48.266 14.6267 48.218 14.776 48.122 14.872C48.0366 14.9573 47.8926 15 47.69 15ZM65.0281 15H58.8841C58.6814 15 58.5321 14.9573 58.4361 14.872C58.3508 14.776 58.3081 14.6267 58.3081 14.424V4.056C58.3081 3.85333 58.3508 3.70933 58.4361 3.624C58.5321 3.528 58.6814 3.48 58.8841 3.48H63.9881C65.0334 3.48 65.8068 3.68267 66.3081 4.088C66.8094 4.48267 67.0601 5.096 67.0601 5.928V6.696C67.0601 7.144 66.9801 7.512 66.8201 7.8C66.6708 8.07733 66.4361 8.28533 66.1161 8.424C66.7988 8.488 67.3054 8.72267 67.6361 9.128C67.9668 9.53333 68.1321 10.1253 68.1321 10.904V12.376C68.1321 13.272 67.8761 13.9333 67.3641 14.36C66.8628 14.7867 66.0841 15 65.0281 15ZM61.9081 6.2V7.928H63.2681C63.4708 7.928 63.6201 7.87467 63.7161 7.768C63.8228 7.66133 63.8761 7.50133 63.8761 7.288V6.84C63.8761 6.62667 63.8228 6.46667 63.7161 6.36C63.6201 6.25333 63.4708 6.2 63.2681 6.2H61.9081ZM61.9081 10.392V12.28H63.9881C64.1908 12.28 64.3401 12.2267 64.4361 12.12C64.5428 12.0133 64.5961 11.8533 64.5961 11.64V11.016C64.5961 10.8027 64.5428 10.648 64.4361 10.552C64.3401 10.4453 64.1908 10.392 63.9881 10.392H61.9081ZM78.6219 15H70.4779C70.2752 15 70.1259 14.9573 70.0299 14.872C69.9445 14.776 69.9019 14.6267 69.9019 14.424V4.056C69.9019 3.85333 69.9445 3.70933 70.0299 3.624C70.1259 3.528 70.2752 3.48 70.4779 3.48H72.9579C73.1605 3.48 73.3045 3.528 73.3899 3.624C73.4859 3.70933 73.5339 3.85333 73.5339 4.056V11.976H75.7259V9.384C75.7259 9.18133 75.7685 9.03733 75.8539 8.952C75.9499 8.856 76.0992 8.808 76.3019 8.808H78.6219C78.8245 8.808 78.9685 8.856 79.0539 8.952C79.1499 9.03733 79.1979 9.18133 79.1979 9.384V14.424C79.1979 14.6267 79.1499 14.776 79.0539 14.872C78.9685 14.9573 78.8245 15 78.6219 15ZM89.0269 15H81.6029C81.4002 15 81.2509 14.9573 81.1549 14.872C81.0695 14.776 81.0269 14.6267 81.0269 14.424V4.056C81.0269 3.85333 81.0695 3.70933 81.1549 3.624C81.2509 3.528 81.4002 3.48 81.6029 3.48H89.0269C89.2295 3.48 89.3735 3.528 89.4589 3.624C89.5549 3.70933 89.6029 3.85333 89.6029 4.056V5.928C89.6029 6.13067 89.5549 6.28 89.4589 6.376C89.3735 6.46133 89.2295 6.504 89.0269 6.504H84.6109V7.736H87.7309C87.9335 7.736 88.0775 7.784 88.1629 7.88C88.2589 7.96533 88.3069 8.10933 88.3069 8.312V10.024C88.3069 10.2267 88.2589 10.376 88.1629 10.472C88.0775 10.5573 87.9335 10.6 87.7309 10.6H84.6109V11.976H89.0269C89.2295 11.976 89.3735 12.024 89.4589 12.12C89.5549 12.2053 89.6029 12.3493 89.6029 12.552V14.424C89.6029 14.6267 89.5549 14.776 89.4589 14.872C89.3735 14.9573 89.2295 15 89.0269 15ZM95.1116 6.36V8.408H96.3116C96.5889 8.408 96.7756 8.33867 96.8716 8.2C96.9676 8.05067 97.0156 7.86933 97.0156 7.656V7.112C97.0156 6.89867 96.9676 6.72267 96.8716 6.584C96.7756 6.43467 96.5889 6.36 96.3116 6.36H95.1116ZM94.5356 15H92.0716C91.8689 15 91.7196 14.9573 91.6236 14.872C91.5383 14.776 91.4956 14.6267 91.4956 14.424V4.056C91.4956 3.85333 91.5383 3.70933 91.6236 3.624C91.7196 3.528 91.8689 3.48 92.0716 3.48H97.3996C98.5943 3.48 99.4156 3.73067 99.8636 4.232C100.322 4.72267 100.552 5.36267 100.552 6.152V6.888C100.552 7.336 100.482 7.72 100.344 8.04C100.216 8.34933 99.9863 8.57333 99.6556 8.712C100.232 8.776 100.696 9.01067 101.048 9.416C101.41 9.82133 101.592 10.36 101.592 11.032V14.424C101.592 14.6267 101.544 14.776 101.448 14.872C101.362 14.9573 101.218 15 101.016 15H98.5356C98.3329 15 98.1836 14.9573 98.0876 14.872C98.0023 14.776 97.9596 14.6267 97.9596 14.424V11.976C97.9596 11.7413 97.9116 11.5707 97.8156 11.464C97.7303 11.3467 97.5756 11.288 97.3516 11.288H95.1116V14.424C95.1116 14.6267 95.0636 14.776 94.9676 14.872C94.8823 14.9573 94.7383 15 94.5356 15Z" fill="#8ECAE6"/>
</svg>
