<svg width="47" height="75" viewBox="0 0 47 75" fill="none" xmlns="http://www.w3.org/2000/svg">
<path d="M1.19 71.8954C2.16 72.1424 3.93 72.5968 6.16 73.0118C10.66 73.9108 16.61 74.721 23.53 74.721C28.79 74.721 34.6 74.2566 40.76 73.0118C43.02 72.5573 44.78 72.1424 45.75 71.8954C46.43 71.7175 46.91 71.1149 46.91 70.4134V65.3253C46.91 65.1277 46.87 64.94 46.8 64.7621L46.36 63.7149C46.25 63.458 46.14 63.2011 46.03 62.9541C46.31 62.3317 46.68 61.403 46.81 60.6027C47.11 58.7453 46.25 57.2337 45.68 56.2359C45.58 56.0679 45.46 55.9197 45.31 55.8012L40.67 52.1061L40.29 51.6813L41.72 50.1795C42.14 49.735 42.23 49.0829 41.99 48.5296C41.87 48.253 41.67 48.0257 41.42 47.8677L41.13 47.6305C36.81 44.1627 35.41 42.4832 34.98 41.6533C33.93 39.6971 33.62 38.5609 33.59 38.5609L33.49 33.6111C34.85 33.4431 36.21 33.2752 37.53 33.0974C38.3 32.9887 38.86 32.3465 38.86 31.5857V28.1278C38.86 27.6733 38.65 27.2386 38.29 26.9422L37.85 26.5866C36.84 25.7665 35.82 24.9465 34.8 24.1265C37.59 21.2712 39.31 17.5762 39.74 15.2841C40.41 11.6977 39.45 8.13108 37.02 5.25606C34.25 1.96608 29.96 0 25.56 0H21.36C16.96 0 12.67 1.96608 9.9 5.25606C7.48 8.13108 6.51 11.6977 7.19 15.3038C7.96 19.1569 10.48 22.3679 12.13 24.1166C10.97 25.0453 9.81 25.9839 8.63 26.9422C8.27 27.2287 8.06 27.6635 8.06 28.1278V31.5857C8.06 32.3465 8.63 32.9986 9.39 33.0974C10.7 33.2752 12.07 33.4431 13.44 33.6111L13.36 38.3337C13.36 38.3435 13.11 39.5192 11.97 41.6829C11.36 42.8685 8.95 45.1804 5.61 47.7886C5.59 47.7985 5.58 47.8281 5.56 47.8479C5.06 48.1048 4.67 48.579 4.67 49.1422C4.67 49.7942 5.01 50.3277 5.55 50.5451L6.64 51.701L1.6 55.811C1.45 55.9296 1.32 56.0778 1.23 56.2457C0.66 57.2436 -0.200002 58.7651 0.0999985 60.6027C0.219998 61.4129 0.599999 62.3515 0.879999 62.964C0.779999 63.2209 0.669999 63.4679 0.549999 63.7248L0.109999 64.772C0.0399987 64.9499 0 65.1474 0 65.3352V70.4233C0.02 71.105 0.509999 71.7175 1.19 71.8954ZM11.15 30.2125V28.7996C12.56 27.6536 13.98 26.5075 15.43 25.3615C15.8 25.075 16.01 24.6304 16.01 24.166C16.01 23.7017 15.8 23.2669 15.43 22.9706C15.25 22.8322 14.96 22.5852 14.63 22.2493C12.31 19.8683 10.7 17.1019 10.21 14.6814C9.71 11.9941 10.44 9.32654 12.26 7.16286C14.42 4.59411 17.9 3.00346 21.35 3.00346H25.56C29 3.00346 32.49 4.59411 34.65 7.16286C36.47 9.32654 37.2 12.004 36.7 14.6814C36.4 16.2918 34.98 19.6312 32.31 22.2197C31.96 22.5556 31.66 22.8224 31.44 23.0002C31.09 23.2966 30.89 23.7313 30.9 24.1858C30.91 24.6402 31.12 25.075 31.48 25.3516C32.93 26.4976 34.35 27.6437 35.76 28.7898V30.2026C34.43 30.3804 33.09 30.5582 31.79 30.7064C30.68 30.7855 29.41 30.8744 28.16 30.9436L27.72 30.9534C24.77 31.0226 22.14 31.0226 19.19 30.9534L18.81 30.9436C17.5 30.8645 16.22 30.7855 15.18 30.7064C13.83 30.5681 12.48 30.4002 11.15 30.2125ZM14.73 43.0463C16.07 40.4776 16.37 39.0351 16.43 38.63L16.52 33.8779C17.2 33.9273 17.92 33.9668 18.68 34.0162L19.12 34.0261C20.62 34.0656 22.06 34.0952 23.46 34.0952C24.86 34.0952 26.3 34.0656 27.8 34.0261L28.3 34.0162C29.04 33.9668 29.7 33.9174 30.4 33.8779L30.51 38.8869C30.54 39.045 30.84 40.4973 32.22 43.0463C32.99 44.5481 34.96 46.4351 36.92 48.1245C35.29 48.3814 33.67 48.6877 32.04 48.8458C26.35 49.4089 20.58 49.4089 14.89 48.8458C13.27 48.6877 11.62 48.4605 9.94 48.2036C12 46.4351 13.97 44.5283 14.73 43.0463ZM3.81 57.9648L8.58 54.1117L9.9 52.6396C10.27 52.2345 10.28 51.701 10.13 51.207C11.62 51.4343 13.09 51.7208 14.59 51.869C17.54 52.1654 20.51 52.3037 23.47 52.3037C26.44 52.3037 29.41 52.1555 32.36 51.869C33.84 51.7208 35.32 51.5331 36.76 51.3157C36.66 51.7801 36.69 52.2642 37.03 52.6396L38.53 54.2797L43.12 57.9648C43.56 58.7552 43.86 59.427 43.75 60.1088C43.68 60.5435 43.44 61.1461 43.2 61.6599C42.48 61.8377 41.45 62.0748 40.23 62.3218C25.66 65.2858 12.99 63.5963 6.73 62.3218C5.49 62.065 4.45 61.8278 3.72 61.65C3.49 61.1362 3.24 60.5336 3.18 60.0989C3.07 59.427 3.37 58.7552 3.81 57.9648ZM3.11 65.6217L3.41 64.9103C3.43 64.8511 3.46 64.8017 3.48 64.7424C4.19 64.9103 5.07 65.1079 6.1 65.3253C9.93 66.1058 16.08 67.0345 23.58 67.0345C28.79 67.0345 34.66 66.58 40.85 65.3253C41.9 65.1079 42.79 64.9103 43.43 64.7523C43.45 64.8115 43.48 64.8609 43.5 64.9202L43.8 65.6316V69.2179C42.85 69.4452 41.6 69.7218 40.13 70.0182C26.39 72.7845 14.41 71.5496 6.75 70.0083C5.29 69.7416 4.05 69.455 3.11 69.2278V65.6217Z" fill="#8ECAE6"/>
</svg>
