<svg width="25" height="39" viewBox="0 0 25 39" fill="none" xmlns="http://www.w3.org/2000/svg">
<g filter="url(#filter0_d_128_2500)">
<path d="M4.43125 29.8277C4.78278 29.9302 5.42422 30.1187 6.23236 30.2909C7.86314 30.6639 10.0194 31 12.5272 31C14.4334 31 16.5389 30.8074 18.7713 30.2909C19.5903 30.1023 20.2281 29.9302 20.5796 29.8277C20.8261 29.7539 21 29.5039 21 29.2129V27.1019C21 27.02 20.9855 26.9421 20.9601 26.8683L20.8007 26.4338C20.7608 26.3273 20.721 26.2207 20.6811 26.1182C20.7826 25.86 20.9167 25.4747 20.9638 25.1427C21.0725 24.3721 20.7608 23.7449 20.5543 23.331C20.518 23.2613 20.4745 23.1998 20.4202 23.1506L18.7386 21.6176L18.6009 21.4414L19.1192 20.8183C19.2714 20.6339 19.304 20.3633 19.217 20.1338C19.1735 20.019 19.101 19.9248 19.0104 19.8592L18.9054 19.7608C17.3398 18.3221 16.8324 17.6253 16.6766 17.281C16.2961 16.4694 16.1838 15.998 16.1729 15.998L16.1366 13.9445C16.6295 13.8748 17.1224 13.8051 17.6007 13.7313C17.8798 13.6862 18.0827 13.4198 18.0827 13.1042V11.6696C18.0827 11.481 18.0066 11.3007 17.8761 11.1777L17.7167 11.0301C17.3507 10.6899 16.981 10.3497 16.6114 10.0095C17.6225 8.82494 18.2458 7.29195 18.4016 6.341C18.6444 4.8531 18.2965 3.3734 17.4159 2.18062C16.4121 0.815682 14.8574 0 13.2628 0H11.7408C10.1462 0 8.59156 0.815682 7.58772 2.18062C6.71072 3.3734 6.3592 4.8531 6.60563 6.3492C6.88467 7.94777 7.79791 9.27992 8.39586 10.0054C7.97548 10.3907 7.5551 10.7801 7.12748 11.1777C6.99701 11.2966 6.92091 11.4769 6.92091 11.6696V13.1042C6.92091 13.4198 7.12748 13.6903 7.4029 13.7313C7.87764 13.8051 8.37412 13.8748 8.8706 13.9445L8.84161 15.9037C8.84161 15.9078 8.75101 16.3956 8.33788 17.2933C8.11682 17.7851 7.24345 18.7443 6.03304 19.8264C6.02579 19.8305 6.02217 19.8428 6.01492 19.851C5.83372 19.9576 5.69239 20.1543 5.69239 20.3879C5.69239 20.6585 5.8156 20.8798 6.0113 20.97L6.40631 21.4496L4.57983 23.1547C4.52547 23.2039 4.47836 23.2654 4.44575 23.3351C4.23918 23.749 3.92752 24.3803 4.03624 25.1427C4.07973 25.4788 4.21744 25.8682 4.31891 26.1223C4.28267 26.2289 4.24281 26.3314 4.19932 26.4379L4.03986 26.8724C4.0145 26.9462 4 27.0282 4 27.106V29.217C4.00725 29.4998 4.18482 29.7539 4.43125 29.8277ZM8.04072 12.5344V11.9483C8.55169 11.4728 9.0663 10.9974 9.59177 10.5219C9.72586 10.403 9.80196 10.2186 9.80196 10.0259C9.80196 9.83327 9.72586 9.65292 9.59177 9.52995C9.52654 9.47256 9.42144 9.37009 9.30185 9.23073C8.4611 8.24289 7.87764 7.0952 7.70006 6.09097C7.51887 4.97607 7.78341 3.86936 8.44298 2.9717C9.22575 1.90599 10.4869 1.24607 11.7372 1.24607H13.2628C14.5095 1.24607 15.7742 1.90599 16.557 2.9717C17.2166 3.86936 17.4811 4.98017 17.2999 6.09097C17.1912 6.75909 16.6766 8.14452 15.709 9.21843C15.5822 9.3578 15.4735 9.46847 15.3937 9.54225C15.2669 9.66521 15.1944 9.84556 15.198 10.0341C15.2017 10.2227 15.2778 10.403 15.4082 10.5178C15.9337 10.9933 16.4483 11.4687 16.9593 11.9442V12.5303C16.4773 12.6041 15.9917 12.6779 15.5206 12.7394C15.1183 12.7722 14.6581 12.8091 14.2051 12.8378L14.0456 12.8419C12.9766 12.8706 12.0234 12.8706 10.9544 12.8419L10.8167 12.8378C10.3419 12.805 9.87807 12.7722 9.50117 12.7394C9.01194 12.682 8.5227 12.6123 8.04072 12.5344ZM9.33809 17.8589C9.82371 16.7932 9.93242 16.1948 9.95417 16.0267L9.98678 14.0551C10.2332 14.0756 10.4941 14.092 10.7696 14.1125L10.929 14.1166C11.4726 14.133 11.9945 14.1453 12.5018 14.1453C13.0092 14.1453 13.531 14.133 14.0746 14.1166L14.2558 14.1125C14.524 14.092 14.7632 14.0715 15.0168 14.0551L15.0567 16.1333C15.0676 16.1989 15.1763 16.8014 15.6764 17.8589C15.9554 18.482 16.6694 19.2648 17.3797 19.9658C16.789 20.0723 16.2019 20.1994 15.6112 20.265C13.5491 20.4986 11.4581 20.4986 9.39608 20.265C8.809 20.1994 8.21104 20.1051 7.60222 19.9985C8.34875 19.2648 9.06267 18.4738 9.33809 17.8589ZM5.38073 24.0483L7.10936 22.4497L7.58772 21.839C7.72181 21.6709 7.72543 21.4496 7.67107 21.2446C8.21104 21.3389 8.74377 21.4578 9.28736 21.5192C10.3564 21.6422 11.4327 21.6996 12.5054 21.6996C13.5818 21.6996 14.6581 21.6381 15.7271 21.5192C16.2635 21.4578 16.7998 21.3799 17.3217 21.2897C17.2854 21.4823 17.2963 21.6832 17.4195 21.839L17.9631 22.5194L19.6265 24.0483C19.786 24.3762 19.8947 24.6549 19.8548 24.9377C19.8295 25.1181 19.7425 25.3681 19.6555 25.5813C19.3946 25.655 19.0213 25.7534 18.5792 25.8559C13.2991 27.0856 8.70753 26.3846 6.43893 25.8559C5.98955 25.7493 5.61266 25.6509 5.34811 25.5772C5.26476 25.364 5.17416 25.114 5.15242 24.9336C5.11256 24.6549 5.22127 24.3762 5.38073 24.0483ZM5.12705 27.2249L5.23577 26.9298C5.24302 26.9052 5.25389 26.8847 5.26114 26.8601C5.51844 26.9298 5.83735 27.0118 6.21062 27.1019C7.59859 27.4258 9.82733 27.8111 12.5453 27.8111C14.4334 27.8111 16.5606 27.6225 18.8039 27.1019C19.1844 27.0118 19.5069 26.9298 19.7389 26.8642C19.7461 26.8888 19.757 26.9093 19.7642 26.9339L19.8729 27.229V28.7169C19.5287 28.8112 19.0757 28.926 18.543 29.0489C13.5636 30.1966 9.22213 29.6843 6.44617 29.0448C5.91708 28.9342 5.4677 28.8153 5.12705 28.721V27.2249Z" fill="#8ECAE6"/>
</g>
<defs>
<filter id="filter0_d_128_2500" x="0" y="0" width="25" height="39" filterUnits="userSpaceOnUse" color-interpolation-filters="sRGB">
<feFlood flood-opacity="0" result="BackgroundImageFix"/>
<feColorMatrix in="SourceAlpha" type="matrix" values="0 0 0 0 0 0 0 0 0 0 0 0 0 0 0 0 0 0 127 0" result="hardAlpha"/>
<feOffset dy="4"/>
<feGaussianBlur stdDeviation="2"/>
<feComposite in2="hardAlpha" operator="out"/>
<feColorMatrix type="matrix" values="0 0 0 0 0 0 0 0 0 0 0 0 0 0 0 0 0 0 0.25 0"/>
<feBlend mode="normal" in2="BackgroundImageFix" result="effect1_dropShadow_128_2500"/>
<feBlend mode="normal" in="SourceGraphic" in2="effect1_dropShadow_128_2500" result="shape"/>
</filter>
</defs>
</svg>
