<svg width="24" height="24" viewBox="0 0 24 24" fill="none" xmlns="http://www.w3.org/2000/svg">
<g clip-path="url(#clip0_322_17232)">
<path d="M10.3448 15.4658C10.9817 15.4658 11.5606 15.7075 12 16.1018V13.0819C12 12.3417 11.4 11.7417 10.6597 11.7417H7.57779C8.24731 11.2968 8.68924 10.5367 8.68924 9.6727C8.68924 8.30139 7.57779 7.18994 6.20648 7.18994C4.83517 7.18994 3.72372 8.30139 3.72372 9.6727C3.72372 10.5367 4.16566 11.2968 4.83517 11.7417H1.34028C0.6 11.7417 0 12.3417 0 13.0819V16.5773C0.444828 15.9077 1.20497 15.4658 2.06897 15.4658C3.44028 15.4658 4.55172 16.5773 4.55172 17.9486C4.55172 19.3199 3.44028 20.4313 2.06897 20.4313C1.20497 20.4313 0.444828 19.9894 0 19.3199V22.4014C0 23.1417 0.6 23.7417 1.34028 23.7417H10.6601C11.4004 23.7417 12.0004 23.1417 12.0004 22.4014V19.7957C11.561 20.1897 10.9821 20.4317 10.3452 20.4317C8.97393 20.4317 7.86248 19.3203 7.86248 17.949C7.86248 16.5777 8.97352 15.4658 10.3448 15.4658Z" fill="#E57E25"/>
<path d="M11.1033 6.10793C11.7927 6.31028 12.5027 6.13607 13.0146 5.70614C12.9716 5.85221 12.9335 5.98255 12.9033 6.08559L12.1957 8.49552C12.0223 9.086 12.3604 9.70545 12.9509 9.87883L15.4101 10.6009C14.7716 10.7987 14.2407 11.3019 14.0383 11.9912C13.7168 13.0853 14.3433 14.2328 15.4374 14.5543C16.5314 14.8758 17.6789 14.2493 18.0004 13.1552C18.2027 12.4659 18.0285 11.7558 17.5986 11.2439L20.388 12.0632C20.9785 12.2366 21.5979 11.8986 21.7713 11.3081L22.5906 8.51869C22.0787 8.94862 21.3687 9.12324 20.6793 8.92049C19.5852 8.59897 18.9587 7.45152 19.2803 6.35745C19.6018 5.26338 20.7492 4.6369 21.8433 4.95842C22.5327 5.16076 23.0358 5.69166 23.2336 6.33014L23.9557 3.87097C24.1291 3.28049 23.791 2.66104 23.2005 2.48766L15.763 0.303244C15.1725 0.129865 14.5531 0.467934 14.3797 1.05842L13.7689 3.13814C13.7358 3.25028 13.6982 3.37938 13.6576 3.51759C13.4598 2.87911 12.9567 2.34821 12.2673 2.14586C11.1728 1.82435 10.0254 2.45083 9.70426 3.5449C9.38316 4.63897 10.0092 5.78683 11.1033 6.10793Z" fill="#F0C419"/>
</g>
<defs>
<clipPath id="clip0_322_17232">
<rect width="24" height="24" fill="white"/>
</clipPath>
</defs>
</svg>
