<svg width="24" height="24" viewBox="0 0 24 24" fill="none" xmlns="http://www.w3.org/2000/svg">
<g clip-path="url(#clip0_322_17161)">
<path d="M22.5435 18.7354V7.60205C23.3684 7.46878 24 6.75886 24 5.89603C24 4.93823 23.2238 4.16198 22.2663 4.16198C21.3082 4.16198 20.532 4.93823 20.532 5.89603C20.532 6.44372 20.7908 6.92644 21.1875 7.24392L18.104 11.0981L12.9053 4.24528C13.6795 3.8985 14.2195 3.12295 14.2195 2.21944C14.2195 0.993797 13.2261 0 12.0001 0C10.7742 0 9.78066 0.993797 9.78066 2.21939C9.78066 3.12291 10.3207 3.89845 11.0949 4.24523L5.89603 11.098L2.81278 7.24388C3.20939 6.92639 3.46842 6.44367 3.46842 5.89598C3.46842 4.93819 2.69203 4.16194 1.73391 4.16194C0.77625 4.16198 0 4.93823 0 5.89603C0 6.75886 0.631828 7.46878 1.45683 7.60209V18.7355C0.799781 18.7721 0.2775 19.3115 0.2775 19.977C0.2775 20.667 0.836203 21.2257 1.5263 21.2257H4.3702H10.89H22.4741C23.1637 21.2257 23.7228 20.667 23.7228 19.977C23.7228 19.3111 23.2001 18.7721 22.5435 18.7354Z" fill="#856330"/>
<path d="M12.0003 3.052L5.89623 11.0981L1.45703 5.54927V19.8382H12.0003V3.052Z" fill="#F6E6A6"/>
<path d="M12 3.052L18.1038 11.0981L22.5434 5.54927V19.8382H12V3.052Z" fill="#E8C581"/>
<path opacity="0.13" d="M19.2146 19.0986L13.2952 13.179L10.7061 15.2138L14.8677 19.3761L19.2146 19.0986Z" fill="#C69950"/>
<path d="M12 12.4856C12.9195 12.4856 13.6643 13.2309 13.6643 14.1503C13.6643 15.0698 12.9195 15.8154 12 15.8154V12.4856Z" fill="#70B3AE"/>
<path d="M12.0004 15.8154C11.0809 15.8154 10.3359 15.0698 10.3359 14.1503C10.3359 13.2308 11.0808 12.4856 12.0004 12.4856V15.8154Z" fill="#96D3D5"/>
<path d="M12.001 0C13.2269 0 14.2204 0.993797 14.2204 2.21939C14.2204 3.44573 13.2269 4.43948 12.001 4.43948V0Z" fill="#E8C581"/>
<path d="M12.0007 4.43948C10.7748 4.43948 9.78125 3.44573 9.78125 2.21939C9.78125 0.993797 10.7747 0 12.0007 0V4.43948Z" fill="#F6E6A6"/>
<path d="M3.46842 5.89591C3.46842 6.85371 2.69203 7.62991 1.73391 7.62991C0.77625 7.62991 0 6.85366 0 5.89591C0 4.93816 0.77625 4.16187 1.73391 4.16187C2.69203 4.16187 3.46842 4.93812 3.46842 5.89591Z" fill="#F6E6A6"/>
<path d="M24.0003 5.89591C24.0003 6.85371 23.224 7.62991 22.2666 7.62991C21.3085 7.62991 20.5322 6.85366 20.5322 5.89591C20.5322 4.93816 21.3085 4.16187 22.2666 4.16187C23.224 4.16187 24.0003 4.93812 24.0003 5.89591Z" fill="#E8C581"/>
<path d="M23.7226 19.9771C23.7226 20.6671 23.1636 21.2258 22.474 21.2258H1.52614C0.836 21.2258 0.277344 20.6671 0.277344 19.9771C0.277344 19.2875 0.836047 18.7285 1.52614 18.7285H22.474C23.1636 18.7285 23.7226 19.2875 23.7226 19.9771Z" fill="#715022"/>
<path d="M10.8899 18.7285H4.37012V21.2258H10.8899V18.7285Z" fill="#856330"/>
</g>
<defs>
<clipPath id="clip0_322_17161">
<rect width="24" height="24" fill="white"/>
</clipPath>
</defs>
</svg>
