<svg width="24" height="24" viewBox="0 0 24 24" fill="none" xmlns="http://www.w3.org/2000/svg">
<g clip-path="url(#clip0_322_17127)">
<path d="M2 7.5H22V20.5C22 20.7652 21.8946 21.0196 21.7071 21.2071C21.5196 21.3946 21.2652 21.5 21 21.5H3C2.73478 21.5 2.48043 21.3946 2.29289 21.2071C2.10536 21.0196 2 20.7652 2 20.5V7.5Z" fill="#4DBE86"/>
<path d="M9.5 14.5H6C5.73478 14.5 5.48043 14.6054 5.29289 14.7929C5.10536 14.9804 5 15.2348 5 15.5V21.5H10.5V15.5C10.5 15.2348 10.3946 14.9804 10.2071 14.7929C10.0196 14.6054 9.76522 14.5 9.5 14.5Z" fill="#EC5044"/>
<path d="M21.6254 2.585L23.8054 7.305C23.9428 7.59175 24.0109 7.90685 24.0039 8.22478C23.997 8.54271 23.9152 8.85453 23.7653 9.135C23.5136 9.57612 23.1499 9.94297 22.7109 10.1985C22.2719 10.4539 21.7733 10.589 21.2654 10.59C19.7004 10.59 18.4404 8.91 18.4454 7.56L17.6104 2H20.7154C20.9072 1.99997 21.0949 2.0551 21.2563 2.15882C21.4176 2.26255 21.5457 2.41048 21.6254 2.585Z" fill="#EC5044"/>
<path d="M2.37503 2.585L0.20003 7.31C0.0625374 7.59675 -0.00548912 7.91185 0.0014602 8.22978C0.00840951 8.54771 0.0901392 8.85953 0.24003 9.14C0.491783 9.58113 0.855531 9.94797 1.29451 10.2035C1.73348 10.4589 2.23212 10.594 2.74003 10.595C4.30503 10.595 5.56503 8.915 5.56003 7.565L6.39003 2H3.28503C3.09322 1.99997 2.90544 2.0551 2.74409 2.15882C2.58275 2.26255 2.45463 2.41049 2.37503 2.585Z" fill="#EC5044"/>
<path d="M10.3197 2.08C10.2969 2.05494 10.2691 2.03488 10.2381 2.02111C10.2071 2.00734 10.1736 2.00015 10.1397 2H5.77469C5.77469 2 5.17969 7.9 5.17969 7.91C5.17969 9.41 6.23469 10.585 7.53469 10.585C8.83469 10.585 9.87969 9.385 9.87969 7.93L10.3797 2.265C10.3849 2.19783 10.3633 2.13132 10.3197 2.08Z" fill="#E7E9E9"/>
<path d="M18.4501 2H14.2301C14.1962 2.00015 14.1627 2.00734 14.1317 2.02111C14.1007 2.03488 14.0729 2.05494 14.0501 2.08C14.027 2.10562 14.0093 2.13567 13.9981 2.16833C13.9869 2.20099 13.9825 2.23558 13.9851 2.27L14.3351 7.92C14.3351 9.42 15.3901 10.595 16.6851 10.595C17.9801 10.595 19.0451 9.395 19.0451 7.92C19.0451 7.905 18.4501 2 18.4501 2Z" fill="#E7E9E9"/>
<path d="M14.3745 2H9.76953V7.91C9.76953 9.41 10.8195 10.585 12.1145 10.585C13.4095 10.585 14.4995 9.39 14.4995 7.915L14.3745 2Z" fill="#EC5044"/>
<path d="M18.5 12.5H13.5C12.9477 12.5 12.5 12.9477 12.5 13.5V18.5C12.5 19.0523 12.9477 19.5 13.5 19.5H18.5C19.0523 19.5 19.5 19.0523 19.5 18.5V13.5C19.5 12.9477 19.0523 12.5 18.5 12.5Z" fill="white"/>
</g>
<defs>
<clipPath id="clip0_322_17127">
<rect width="24" height="24" fill="white"/>
</clipPath>
</defs>
</svg>
