<svg width="21" height="21" viewBox="0 0 21 21" fill="none" xmlns="http://www.w3.org/2000/svg">
<g clip-path="url(#clip0_68_1112)">
<path d="M10.2212 20.5C4.7071 20.5 0.221191 16.0141 0.221191 10.5C0.221191 4.98591 4.7071 0.5 10.2212 0.5C15.7353 0.5 20.2212 4.98591 20.2212 10.5C20.2212 16.0141 15.7353 20.5 10.2212 20.5Z" fill="#F0C419"/>
<path d="M10.5597 15.0455H9.88197C9.31606 15.0455 8.85742 14.5868 8.85742 14.0205V6.525C8.85742 5.95864 9.31606 5.5 9.88242 5.5H10.5601C11.1261 5.5 11.5847 5.95864 11.5847 6.525V14.0209C11.5847 14.5868 11.1261 15.0455 10.5597 15.0455Z" fill="#FBD490"/>
<path d="M10.2212 20.5C4.7071 20.5 0.221191 16.0141 0.221191 10.5C0.221191 4.98591 4.7071 0.5 10.2212 0.5C15.7353 0.5 20.2212 4.98591 20.2212 10.5C20.2212 16.0141 15.7353 20.5 10.2212 20.5Z" fill="#F0C419"/>
<path d="M10.5597 15.0455H9.88197C9.31606 15.0455 8.85742 14.5868 8.85742 14.0205V6.525C8.85742 5.95864 9.31606 5.5 9.88242 5.5H10.5601C11.1261 5.5 11.5847 5.95864 11.5847 6.525V14.0209C11.5847 14.5868 11.1261 15.0455 10.5597 15.0455Z" fill="#FBD490"/>
</g>
<defs>
<clipPath id="clip0_68_1112">
<rect width="20" height="20" fill="white" transform="translate(0.221191 0.5)"/>
</clipPath>
</defs>
</svg>
